<svg width="40" height="20" viewBox="0 0 40 20" fill="none" xmlns="http://www.w3.org/2000/svg">
<g clip-path="url(#clip0_422_1288)">
<path d="M39.5412 8.4157L31.3605 0.446462C31.0661 0.159676 30.6675 -0.000922005 30.2522 3.98222e-06C29.8369 0.000929969 29.439 0.163294 29.146 0.45139C28.853 0.739485 28.689 1.12971 28.6899 1.53622C28.6909 1.94272 28.8567 2.33221 29.1511 2.61899L34.6433 7.96935H1.48628C1.08529 7.98929 0.707456 8.15925 0.430848 8.44412C0.15424 8.72899 0 9.10699 0 9.5C0 9.89301 0.15424 10.271 0.430848 10.5559C0.707456 10.8407 1.08529 11.0107 1.48628 11.0307H34.6433L29.1511 16.381C28.8567 16.6678 28.6909 17.0573 28.6899 17.4638C28.689 17.8703 28.853 18.2605 29.146 18.5486C29.439 18.8367 29.8369 18.9991 30.2522 19C30.6675 19.0009 31.0661 18.8403 31.3605 18.5535L39.5412 10.5843C39.835 10.2967 40 9.90667 40 9.5C40 9.09333 39.835 8.7033 39.5412 8.4157Z" fill="#1D293F"/>
</g>
<defs>
<clipPath id="clip0_422_1288">
<rect width="39.729" height="19.244" fill="white"/>
</clipPath>
</defs>
</svg>
