<svg width="18" height="18" viewBox="0 0 18 18" fill="none" xmlns="http://www.w3.org/2000/svg">
<path d="M9 0C7.21997 0 5.47991 0.527841 3.99987 1.51677C2.51983 2.50571 1.36628 3.91131 0.685088 5.55585C0.00389966 7.20038 -0.17433 9.00998 0.172936 10.7558C0.520203 12.5016 1.37737 14.1053 2.63604 15.364C3.89471 16.6226 5.49836 17.4798 7.24419 17.8271C8.99002 18.1743 10.7996 17.9961 12.4442 17.3149C14.0887 16.6337 15.4943 15.4802 16.4832 14.0001C17.4722 12.5201 18 10.78 18 9C18 6.61305 17.0518 4.32387 15.364 2.63604C13.6761 0.948211 11.3869 0 9 0ZM9 16.8C7.45731 16.8 5.94926 16.3425 4.66655 15.4855C3.38385 14.6284 2.38411 13.4102 1.79374 11.9849C1.20338 10.5597 1.04891 8.99134 1.34988 7.47829C1.65084 5.96524 2.39372 4.57542 3.48457 3.48457C4.57542 2.39372 5.96525 1.65084 7.4783 1.34987C8.99135 1.04891 10.5597 1.20338 11.9849 1.79374C13.4102 2.3841 14.6284 3.38385 15.4855 4.66655C16.3425 5.94925 16.8 7.4573 16.8 9C16.8 11.0687 15.9782 13.0526 14.5154 14.5154C13.0527 15.9782 11.0687 16.8 9 16.8Z" fill="#28B0A6"/>
<path d="M9.6 3C9.6 2.84087 9.53678 2.68826 9.42426 2.57574C9.31174 2.46321 9.15913 2.4 9 2.4C8.84087 2.4 8.68826 2.46321 8.57573 2.57574C8.46321 2.68826 8.4 2.84087 8.4 3V9C8.4 9.15913 8.46321 9.31174 8.57573 9.42426C8.68826 9.53678 8.84087 9.6 9 9.6H15C15.1591 9.6 15.3117 9.53678 15.4243 9.42426C15.5368 9.31174 15.6 9.15913 15.6 9C15.6 8.84087 15.5368 8.68826 15.4243 8.57573C15.3117 8.46321 15.1591 8.4 15 8.4H9.6V3Z" fill="#28B0A6"/>
</svg>
