<svg width="45" height="45" viewBox="0 0 45 45" fill="none" xmlns="http://www.w3.org/2000/svg">
<path d="M1 38V23.1996C1 10.939 10.6259 1 22.5 1C34.3741 1 44 10.939 44 23.1996V38" stroke="#28B0A6" stroke-width="2" stroke-miterlimit="10" stroke-linecap="round" stroke-linejoin="round"/>
<path d="M39.2222 44H36.8333C34.1991 44 32.0556 42.2057 32.0556 40.0004V33.9996C32.0556 31.7943 34.1991 30 36.8333 30H44V39.9994C44.001 42.2057 41.8574 44 39.2222 44ZM8.16667 44H5.77778C3.14357 44 1 42.2057 1 39.9994V30H8.16667C10.8009 30 12.9444 31.7943 12.9444 33.9996V39.9994C12.9455 42.2057 10.8019 44 8.16667 44V44Z" stroke="#28B0A6" stroke-width="2" stroke-miterlimit="10" stroke-linecap="round" stroke-linejoin="round"/>
</svg>
