<svg width="24" height="24" viewBox="0 0 24 24" fill="none" xmlns="http://www.w3.org/2000/svg">
<path d="M20.727 0H3.273C2.40527 0.00105853 1.57339 0.346231 0.959809 0.959809C0.346231 1.57339 0.00105853 2.40527 0 3.273L0 20.727C0.00105853 21.5947 0.346231 22.4266 0.959809 23.0402C1.57339 23.6538 2.40527 23.9989 3.273 24H20.727C21.5946 23.9987 22.4264 23.6534 23.0399 23.0399C23.6534 22.4264 23.9987 21.5946 24 20.727V3.273C23.9989 2.40527 23.6538 1.57339 23.0402 0.959809C22.4266 0.346231 21.5947 0.00105853 20.727 0V0ZM22.909 20.727C22.9072 21.3051 22.6767 21.8591 22.2679 22.2679C21.8591 22.6767 21.3051 22.9072 20.727 22.909H3.273C2.69487 22.9072 2.14094 22.6767 1.73213 22.2679C1.32333 21.8591 1.09285 21.3051 1.091 20.727V3.273C1.09285 2.69487 1.32333 2.14094 1.73213 1.73213C2.14094 1.32333 2.69487 1.09285 3.273 1.091H20.727C21.3051 1.09285 21.8591 1.32333 22.2679 1.73213C22.6767 2.14094 22.9072 2.69487 22.909 3.273V20.727Z" fill="black"/>
<path d="M6.78223 4.94801C7.35772 4.94801 7.82423 4.48149 7.82423 3.90601C7.82423 3.33053 7.35772 2.86401 6.78223 2.86401C6.20675 2.86401 5.74023 3.33053 5.74023 3.90601C5.74023 4.48149 6.20675 4.94801 6.78223 4.94801Z" fill="black"/>
<path d="M11.999 4.94801C12.5745 4.94801 13.041 4.48149 13.041 3.90601C13.041 3.33053 12.5745 2.86401 11.999 2.86401C11.4236 2.86401 10.957 3.33053 10.957 3.90601C10.957 4.48149 11.4236 4.94801 11.999 4.94801Z" fill="black"/>
<path d="M17.2178 4.94801C17.7933 4.94801 18.2598 4.48149 18.2598 3.90601C18.2598 3.33053 17.7933 2.86401 17.2178 2.86401C16.6423 2.86401 16.1758 3.33053 16.1758 3.90601C16.1758 4.48149 16.6423 4.94801 17.2178 4.94801Z" fill="black"/>
<path d="M7.9335 9.21698H11.6935V12.562H7.9335V9.21698ZM12.3065 9.21698H16.0665V12.562H12.3065V9.21698ZM16.6765 9.21698H20.4365V12.562H16.6765V9.21698ZM3.5625 13.116H7.3225V16.459H3.5625V13.116ZM7.9335 13.116H11.6935V16.459H7.9335V13.116ZM12.3065 13.116H16.0665V16.459H12.3065V13.116ZM16.6765 13.116H20.4365V16.459H16.6765V13.116ZM3.5625 17.015H7.3225V20.358H3.5625V17.015ZM7.9335 17.015H11.6935V20.358H7.9335V17.015ZM12.3065 17.015H16.0665V20.358H12.3065V17.015ZM16.6765 17.015H20.4365V20.358H16.6765V17.015Z" fill="black"/>
</svg>
