<svg width="45" height="45" viewBox="0 0 45 45" fill="none" xmlns="http://www.w3.org/2000/svg">
<path d="M34.6831 34.997C33.8983 34.9928 33.1214 34.8469 32.3938 34.567C32.1352 34.4757 31.897 34.3387 31.6918 34.1633C31.2656 33.7504 31.0217 33.1979 31.01 32.6192C30.9565 31.9211 31.1188 31.2235 31.4768 30.6121C31.8348 30.0008 32.3728 29.5025 33.0247 29.1786C34.821 28.4721 36.5112 30.0547 37.0669 30.5744C37.3543 30.8002 37.5866 31.0828 37.7477 31.4026C37.9089 31.7224 37.9949 32.0718 38 32.4264C37.9687 32.8382 37.8158 33.2332 37.5589 33.5659C37.2334 34.0056 36.8024 34.3651 36.3017 34.6145C35.801 34.8639 35.2451 34.9961 34.6799 35L34.6831 34.997ZM33.9822 30.3261C33.8385 30.3257 33.6961 30.3524 33.5634 30.4049C33.184 30.6225 32.8751 30.9354 32.6706 31.3094C32.4661 31.6833 32.374 32.1037 32.4044 32.5243C32.3995 32.7652 32.4848 32.9998 32.6451 33.1864C32.9156 33.3653 33.2308 33.4732 33.5591 33.4992C33.9686 33.6039 34.3906 33.6582 34.8146 33.6607C35.1307 33.6397 35.4378 33.5519 35.7139 33.4039C35.9899 33.2559 36.2279 33.0513 36.4105 32.8049C36.516 32.6757 36.5833 32.522 36.6056 32.3598C36.5564 32.0255 36.3704 31.7233 36.0881 31.5191C35.5636 30.889 34.8142 30.4645 33.9822 30.3261Z" fill="white"/>
<path d="M18.6489 40C18.3556 40.0011 18.064 39.9559 17.7845 39.8659C16.779 39.5413 15.7578 39.2891 14.7464 39.0022C14.2806 38.8976 13.8392 38.7024 13.4469 38.4273C12.7834 37.9458 12.181 37.3833 11.6534 36.7524C11.377 36.4214 11.1732 36.0345 11.0556 35.6176C10.6263 33.8523 12.7844 33.2814 14.0467 32.9925C14.6476 32.8543 15.2407 32.6833 15.8235 32.4802C16.4192 32.3213 16.94 31.9537 17.2935 31.4427C17.5072 31.0853 17.6208 30.6802 17.8384 30.3228C18.0091 30.0496 18.2147 29.8006 18.4499 29.5821C18.8616 29.1899 19.3408 28.8782 19.7318 28.4582C20.1111 27.9906 20.4287 27.4749 20.6766 26.9243C21.3548 25.5998 22.1976 23.9458 24.2047 24.0014C25.1443 24.0976 26.0424 24.4421 26.8092 25.0006C27.576 25.5591 28.1844 26.3118 28.5737 27.1834C28.8779 27.6703 29.0255 28.2406 28.9964 28.816C28.9673 29.3914 28.7627 29.9435 28.411 30.3962C28.3604 30.4652 28.2968 30.5234 28.224 30.5675C28.1511 30.6116 28.0704 30.6407 27.9865 30.6532C27.9025 30.6657 27.817 30.6613 27.7347 30.6403C27.6524 30.6193 27.575 30.5821 27.5069 30.5308C27.4389 30.4795 27.3814 30.4151 27.3379 30.3413C27.2944 30.2675 27.2656 30.1857 27.2533 30.1007C27.241 30.0156 27.2453 29.929 27.266 29.8456C27.2868 29.7623 27.3235 29.6839 27.3741 29.6149C27.5829 29.3557 27.7005 29.0336 27.7085 28.6992C27.7164 28.3648 27.6143 28.0373 27.4182 27.7682C27.1342 27.1084 26.6856 26.5348 26.1165 26.1038C25.5474 25.6728 24.8774 25.3992 24.1724 25.3099C23.0502 25.2801 22.5367 26.129 21.8203 27.5269C21.5213 28.1852 21.1352 28.7991 20.6727 29.3518C20.2865 29.7658 19.8298 30.0815 19.4153 30.4588C18.9911 30.9548 18.6471 31.5158 18.3961 32.1208C17.2935 33.9625 14.9473 33.9516 13.1587 34.585C12.8755 34.6843 12.4639 34.8223 12.3149 35.1142C12.2669 35.2075 12.1356 35.7566 14.2299 37.3898C14.4939 37.5578 14.7852 37.6768 15.0904 37.7413C16.1175 38.0332 17.1543 38.2893 18.1755 38.619C18.7982 38.7321 19.4402 38.6493 20.0151 38.3816C20.965 38.086 21.9526 37.9335 22.9463 37.9289C23.6977 37.9444 24.4473 37.8518 25.173 37.6539C25.4222 37.5837 25.6521 37.4562 25.8447 37.2812C26.0373 37.1062 26.1875 36.8886 26.2834 36.6452C26.3226 36.4341 26.306 36.2162 26.2355 36.0136C26.1649 35.8111 26.0428 35.6309 25.8816 35.4915C25.4143 35.0211 25.1497 34.3826 25.1455 33.7153C25.1635 33.1874 25.2685 32.6662 25.4562 32.1734C25.4864 32.0927 25.532 32.0187 25.5905 31.9559C25.649 31.8931 25.7192 31.8427 25.797 31.8075C25.8749 31.7723 25.9588 31.753 26.044 31.7509C26.1292 31.7487 26.214 31.7636 26.2935 31.7948C26.373 31.826 26.4456 31.8728 26.5072 31.9326C26.5687 31.9923 26.618 32.0638 26.6521 32.143C26.6862 32.2221 26.7046 32.3073 26.706 32.3936C26.7075 32.48 26.6921 32.5657 26.6607 32.646C26.5254 33.0028 26.4499 33.38 26.4372 33.762C26.4255 34.0836 26.5813 34.2921 26.8802 34.6615C27.2104 34.9811 27.4459 35.3878 27.56 35.8358C27.6742 36.2838 27.6624 36.7551 27.5262 37.1967C27.3899 37.6383 27.1345 38.0325 26.7889 38.3349C26.4432 38.6372 26.021 38.8357 25.5699 38.9079C24.729 39.1461 23.8586 39.2598 22.9856 39.2454C22.4173 39.2463 21.85 39.2931 21.2891 39.3854C20.4305 39.6755 19.5464 39.8813 18.6489 40Z" fill="white"/>
<path d="M41.9231 11.1374C41.8347 10.9868 41.6901 10.8774 41.5211 10.8333C41.3521 10.7893 41.1725 10.8142 41.0218 10.9026C40.8711 10.991 40.7617 11.1356 40.7177 11.3046C40.6737 11.4737 40.6986 11.6533 40.787 11.804C42.6815 15.0452 43.6808 18.7316 43.6825 22.486C43.6842 26.2403 42.6883 29.9276 40.7967 33.1705C38.9051 36.4134 36.1857 39.0954 32.917 40.9419C29.6484 42.7883 25.9478 43.733 22.194 43.6791C18.4403 43.6252 14.7684 42.5747 11.554 40.6351C8.3397 38.6956 5.69848 35.9367 3.90074 32.6408C2.10301 29.3449 1.21334 25.6305 1.32281 21.8778C1.43228 18.125 2.53696 14.4688 4.52377 11.2833C4.3509 13.3629 4.3439 15.3376 4.36089 16.8736C4.3459 17.2816 4.39617 17.6895 4.50978 18.0817C4.75066 18.7409 5.0517 19.3765 5.40911 19.9805C5.76679 20.577 6.06181 21.2089 6.28946 21.8662C6.49002 22.4797 6.77272 23.0633 7.12984 23.601C7.51626 24.2411 8.06874 24.7646 8.72866 25.116C9.02337 25.2591 9.34634 25.3346 9.67396 25.3368C9.94553 25.3362 10.2144 25.2826 10.4654 25.1789C10.9154 24.9395 11.2836 24.5711 11.5229 24.121C11.7621 23.6709 11.8616 23.1596 11.8084 22.6527C11.8084 22.5867 11.8174 22.5227 11.8224 22.4598C11.8736 22.0262 11.97 21.5991 12.1102 21.1856C12.2821 20.6755 12.3954 20.1475 12.4479 19.6117C12.4459 18.4775 12.1757 17.3598 11.6595 16.3499C11.5046 15.9832 11.3157 15.6044 11.1329 15.2387C10.5533 14.0784 9.95475 12.8783 10.3764 11.9759C11.4197 9.75037 14.1157 8.19542 16.2881 7.4879C16.9134 7.28976 17.5623 7.1755 18.2176 7.14813C18.7012 7.20868 19.1657 7.37421 19.5786 7.63315C19.9915 7.89208 20.3428 8.23815 20.6079 8.64712C20.9122 9.12721 21.3228 9.53098 21.8079 9.82726C22.293 10.1235 22.8397 10.3044 23.4058 10.356C24.9047 10.3829 26.1418 9.15677 27.262 7.83367C27.848 7.20759 28.3268 6.48909 28.6789 5.7071C28.9509 4.90241 29.0877 4.0582 29.0836 3.20879C29.0976 2.92298 29.1126 2.64617 29.1376 2.37735C33.0787 3.67507 36.5501 6.10536 39.1182 9.36463C39.2266 9.50166 39.385 9.59001 39.5585 9.61025C39.732 9.63049 39.9065 9.58096 40.0435 9.47256C40.1805 9.36416 40.2689 9.20576 40.2891 9.03222C40.3093 8.85868 40.2598 8.68421 40.1514 8.54718C38.2506 6.14255 35.8786 4.15165 33.1808 2.69664C30.4831 1.24162 27.5165 0.353164 24.4631 0.0857769C21.4097 -0.18161 18.3339 0.177708 15.4243 1.14169C12.5148 2.10567 9.83284 3.65398 7.54306 5.69165C5.25327 7.72931 3.40392 10.2133 2.10846 12.9914C0.813003 15.7694 0.098755 18.7828 0.00953506 21.8468C-0.0796849 24.9108 0.458005 27.9607 1.58962 30.8094C2.72123 33.6581 4.4229 36.2455 6.59024 38.413C10.4587 42.2797 15.6029 44.6049 21.0612 44.9541C26.5194 45.3032 31.9179 43.6524 36.2475 40.3101C40.577 36.9679 43.5412 32.1631 44.5858 26.794C45.6303 21.425 44.6838 15.8593 41.9231 11.1374ZM27.8495 1.99961C27.8036 2.38535 27.7846 2.76909 27.7666 3.14284C27.7733 3.84912 27.6667 4.55191 27.4508 5.22443C27.1475 5.8709 26.7426 6.46467 26.2517 6.98324C24.6989 8.821 23.9254 9.04884 23.4258 9.03785C23.0591 8.97776 22.7098 8.83879 22.402 8.63054C22.0942 8.4223 21.8353 8.14973 21.6431 7.83167C21.2644 7.2701 20.7658 6.79956 20.1833 6.45394C19.6009 6.10833 18.9489 5.89626 18.2746 5.83302C16.8249 5.86724 15.4039 6.24391 14.1277 6.93227C13.0801 7.4229 12.1037 8.05284 11.2248 8.80501C10.9234 9.06594 10.6387 9.34564 10.3724 9.64244C9.89148 10.1733 9.49055 10.7716 9.18233 11.4182C8.49084 12.8982 9.26726 14.4542 9.95376 15.8283C10.6556 16.9401 11.0615 18.2129 11.1329 19.5258C11.085 19.9636 10.9892 20.395 10.8471 20.8119C10.6648 21.3817 10.5458 21.9699 10.4924 22.5657C10.4454 23.2363 10.2835 24.4005 9.29324 23.9298C8.45294 23.3353 7.83813 22.4743 7.54853 21.4864C7.29552 20.7425 6.9653 20.0271 6.56326 19.3519C6.24652 18.8166 5.97896 18.2536 5.76385 17.67C5.69752 17.407 5.67025 17.1356 5.68291 16.8646C5.64155 14.7669 5.72028 12.6685 5.91874 10.5798C5.9717 10.0801 5.99868 9.63345 6.00068 9.22772C6.47796 8.63405 6.98735 8.06692 7.52655 7.52887C10.624 4.40912 14.6224 2.34023 18.9581 1.61387C21.0712 1.26088 23.2253 1.22719 25.3484 1.51394C26.1924 1.61757 27.0281 1.77986 27.8495 1.99961Z" fill="white"/>
<path d="M35.8535 9.95695C35.5944 9.51779 35.2437 9.1406 34.8258 8.85148C34.4079 8.56235 33.9327 8.36818 33.4331 8.28237C32.4013 8.01416 31.3299 7.93614 30.2706 8.05208C29.8576 8.08073 29.4598 8.22033 29.1183 8.45639C28.8001 8.7271 28.5542 9.0739 28.4031 9.4651C27.8218 10.2868 27.381 11.2008 27.0989 12.1692C27.0827 12.4002 27.0796 12.6319 27.0896 12.8632C27.118 13.087 27.0972 13.3143 27.0286 13.5291C26.9403 13.6598 26.8341 13.7773 26.7134 13.8782C26.361 14.117 26.1162 14.4862 26.032 14.9058C25.9479 15.3254 26.0311 15.7615 26.2638 16.1196C26.6255 16.5176 27.0967 16.7977 27.6171 16.9243C28.1376 17.0509 28.6836 17.0182 29.1855 16.8303C30.246 16.4609 31.2202 15.8764 32.0482 15.113L34.4883 13.1008C35.3998 12.3464 36.3765 11.1907 35.8535 9.95695ZM33.6212 12.0348L31.1812 14.047C30.1373 14.9077 29.0242 15.7361 27.8988 15.5861C27.7065 15.5675 27.5265 15.4825 27.3893 15.3454C27.2425 15.1786 27.5185 14.9942 27.6394 14.8817C27.8752 14.6804 28.0748 14.4396 28.2295 14.1699C28.3758 13.8705 28.4511 13.5409 28.4496 13.2071C28.4569 12.9122 28.4135 12.6225 28.4496 12.3286C28.5535 11.876 28.7553 11.4522 29.0408 11.0876C29.2625 10.7572 29.4607 10.4114 29.634 10.0528C29.7013 9.868 29.8046 9.69864 29.9379 9.55471C30.3364 9.38329 30.7726 9.3204 31.2029 9.37235C32.7314 9.37235 34.3322 9.86941 34.5989 10.4978C34.7467 10.8406 34.3912 11.4023 33.6212 12.0348Z" fill="white"/>
</svg>
