<svg width="24" height="24" viewBox="0 0 24 24" fill="none" xmlns="http://www.w3.org/2000/svg">
<path d="M12 24C18.6274 24 24 18.6274 24 12C24 5.37258 18.6274 0 12 0C5.37258 0 0 5.37258 0 12C0 18.6274 5.37258 24 12 24Z" fill="white"/>
<path d="M12 23.5C18.3513 23.5 23.5 18.3513 23.5 12C23.5 5.64873 18.3513 0.5 12 0.5C5.64873 0.5 0.5 5.64873 0.5 12C0.5 18.3513 5.64873 23.5 12 23.5Z" stroke="black"/>
<path d="M12.8126 14.43L14.7916 11.539C14.8743 11.4287 14.923 11.2966 14.9316 11.159C14.9316 10.943 14.7576 10.809 14.4676 10.809H10.1896C9.89956 10.809 9.72656 10.943 9.72656 11.158C9.73516 11.295 9.78384 11.4265 9.86656 11.536L11.8456 14.429C11.8962 14.5138 11.9671 14.5846 12.052 14.6351C12.1368 14.6855 12.2329 14.714 12.3316 14.718C12.4293 14.7136 12.5244 14.685 12.6084 14.6347C12.6923 14.5844 12.7625 14.5141 12.8126 14.43Z" fill="black"/>
</svg>
