<svg width="42" height="42" viewBox="0 0 42 42" fill="none" xmlns="http://www.w3.org/2000/svg">
<path d="M21 41C32.0457 41 41 32.0457 41 21C41 9.9543 32.0457 1 21 1C9.9543 1 1 9.9543 1 21C1 32.0457 9.9543 41 21 41Z" stroke="#1D293F" stroke-width="2" stroke-miterlimit="10" stroke-linecap="round" stroke-linejoin="round"/>
<path d="M15.887 14.797C16.2954 13.6348 17.1021 12.6547 18.1641 12.0303C19.226 11.406 20.4747 11.1778 21.6889 11.3862C22.903 11.5945 24.0042 12.2259 24.7974 13.1685C25.5905 14.1111 26.0243 15.3041 26.022 16.536C26.022 20.013 20.807 21.751 20.807 21.751" stroke="#1D293F" stroke-width="2" stroke-miterlimit="10" stroke-linecap="round" stroke-linejoin="round"/>
<path d="M20.949 31.1318H20.966" stroke="#1D293F" stroke-width="2" stroke-miterlimit="10" stroke-linecap="round" stroke-linejoin="round"/>
</svg>
