<svg width="48" height="48" viewBox="0 0 48 48" fill="none" xmlns="http://www.w3.org/2000/svg">
<path d="M24 47.25C36.8406 47.25 47.25 36.8406 47.25 24C47.25 11.1594 36.8406 0.75 24 0.75C11.1594 0.75 0.75 11.1594 0.75 24C0.75 36.8406 11.1594 47.25 24 47.25Z" stroke="white" stroke-width="1.5"/>
<path d="M17.0264 25.049H28.4994L23.4844 30.194C23.2908 30.3957 23.1827 30.6644 23.1827 30.944C23.1827 31.2236 23.2908 31.4923 23.4844 31.694C23.5778 31.792 23.6902 31.8701 23.8146 31.9234C23.9391 31.9767 24.073 32.0042 24.2084 32.0042C24.3438 32.0042 24.4778 31.9767 24.6023 31.9234C24.7267 31.8701 24.839 31.792 24.9324 31.694L31.6994 24.743C31.8922 24.5435 31.9999 24.2769 31.9999 23.9995C31.9999 23.7221 31.8922 23.4555 31.6994 23.256L24.9324 16.308C24.839 16.21 24.7267 16.1319 24.6023 16.0786C24.4778 16.0253 24.3438 15.9978 24.2084 15.9978C24.073 15.9978 23.9391 16.0253 23.8146 16.0786C23.6902 16.1319 23.5778 16.21 23.4844 16.308C23.2917 16.5075 23.1839 16.7741 23.1839 17.0515C23.1839 17.3289 23.2917 17.5955 23.4844 17.795L28.4994 22.94H17.0264C16.7524 22.9485 16.4924 23.0633 16.3015 23.2601C16.1106 23.4569 16.0039 23.7203 16.0039 23.9945C16.0039 24.2687 16.1106 24.5321 16.3015 24.7289C16.4924 24.9258 16.7524 25.0406 17.0264 25.049Z" fill="white"/>
</svg>
