<svg width="15" height="15" viewBox="0 0 15 15" fill="none" xmlns="http://www.w3.org/2000/svg">
<path d="M13.75 6.25H8.75V1.24999C8.75 0.918473 8.61831 0.600535 8.38389 0.366114C8.14947 0.131694 7.83151 0 7.49999 0C7.16847 0 6.85053 0.131694 6.61611 0.366114C6.38169 0.600535 6.25 0.918473 6.25 1.24999V6.25H1.24999C0.918473 6.25 0.600535 6.38169 0.366114 6.61611C0.131694 6.85053 0 7.16847 0 7.49999C0 7.83151 0.131694 8.14945 0.366114 8.38387C0.600535 8.61829 0.918473 8.75 1.24999 8.75H6.25V13.75C6.25 14.0815 6.38169 14.3995 6.61611 14.6339C6.85053 14.8683 7.16847 15 7.49999 15C7.83151 15 8.14947 14.8683 8.38389 14.6339C8.61831 14.3995 8.75 14.0815 8.75 13.75V8.75H13.75C14.0815 8.75 14.3995 8.61829 14.6339 8.38387C14.8683 8.14945 15 7.83151 15 7.49999C15 7.16847 14.8683 6.85053 14.6339 6.61611C14.3995 6.38169 14.0815 6.25 13.75 6.25Z" fill="#1D293F"/>
</svg>
