<svg width="12" height="12" viewBox="0 0 12 12" fill="none" xmlns="http://www.w3.org/2000/svg">
<path d="M8.9558 7.30197C8.81822 7.44287 8.75501 7.64665 8.78635 7.8465L9.25857 10.6084C9.29841 10.8425 9.20492 11.0794 9.01954 11.2147C8.83788 11.355 8.59619 11.3719 8.39806 11.2596L6.04546 9.96285C5.96366 9.91681 5.87283 9.89212 5.77987 9.88931H5.63592C5.58599 9.89717 5.53712 9.91401 5.4925 9.93983L3.13937 11.2428C3.02304 11.3045 2.89131 11.3264 2.76223 11.3045C2.44777 11.2416 2.23796 10.925 2.28948 10.591L2.76223 7.82909C2.79357 7.62756 2.73036 7.42267 2.59279 7.27952L0.674692 5.31474C0.514276 5.15026 0.458502 4.90326 0.531805 4.68039C0.602983 4.45809 0.784647 4.29586 1.00402 4.25937L3.64399 3.85462C3.84478 3.83273 4.02113 3.70362 4.11143 3.51275L5.27472 0.992218C5.30234 0.936082 5.33793 0.884436 5.38095 0.840649L5.42876 0.801354C5.45372 0.772163 5.48241 0.748024 5.51428 0.728376L5.57218 0.705922L5.66248 0.666626H5.88611C6.08583 0.688519 6.26165 0.814827 6.35354 1.00345L7.53223 3.51275C7.61722 3.69632 7.78242 3.82375 7.97311 3.85462L10.6131 4.25937C10.8362 4.29305 11.0226 4.45585 11.0965 4.68039C11.166 4.9055 11.106 5.1525 10.9424 5.31474L8.9558 7.30197Z" fill="#F5A623"/>
</svg>
