<svg width="28" height="24" viewBox="0 0 28 24" fill="none" xmlns="http://www.w3.org/2000/svg">
<path d="M20.7022 0C19.8086 0 17.1581 -2.8257e-07 14.0001 4.03022C12.8679 2.54874 10.5441 0 7.2979 0C3.27661 0 0 3.25926 0 7.25926C0 8.20717 0.179189 9.12616 0.536411 10.015C1.19149 11.6146 4.82519 15.2002 9.47262 19.7036C11.2599 21.4224 12.7796 22.9327 13.5532 23.7928C13.6719 23.9109 13.8208 24 14 24C14.1792 24 14.3281 23.941 14.4468 23.7928C15.2218 22.934 16.7705 21.4225 18.5274 19.7036C23.1748 15.2002 26.7782 11.6145 27.4636 9.98483C27.8208 9.12604 28 8.17695 28 7.22903C28 3.25926 24.7234 0 20.7021 0H20.7022ZM26.3618 9.54044C25.7358 11.052 21.0897 15.5556 17.7235 18.8435C16.2038 20.2949 14.8937 21.5993 14.0304 22.517C13.1671 21.598 11.8267 20.3249 10.3374 18.8435C6.94224 15.5541 2.29482 11.0507 1.69907 9.54044C1.3407 8.82981 1.19176 8.05896 1.19176 7.2592C1.19176 3.91075 3.93196 1.18513 7.29817 1.18513C10.1582 1.18513 12.2131 3.5856 13.5231 5.39224C13.6418 5.54038 13.821 5.6295 14.0002 5.6295C14.1794 5.6295 14.3877 5.54038 14.4773 5.39224C15.7584 3.58435 17.8132 1.18513 20.7022 1.18513C24.0685 1.18513 26.8087 3.91081 26.8087 7.2592C26.8087 8.05896 26.6597 8.82981 26.3618 9.54044H26.3618Z" fill="#546179"/>
</svg>
