<svg width="32" height="32" viewBox="0 0 32 32" fill="none" xmlns="http://www.w3.org/2000/svg">
<path d="M31.5095 28.788L24.2553 21.5337C26.0018 19.2087 26.9446 16.3786 26.9414 13.4707C26.9414 6.04301 20.8984 0 13.4707 0C6.04301 0 0 6.04301 0 13.4707C0 20.8984 6.04301 26.9414 13.4707 26.9414C16.3786 26.9446 19.2087 26.0018 21.5337 24.2553L28.788 31.5095C29.1552 31.8378 29.6341 32.013 30.1264 31.9992C30.6188 31.9855 31.0872 31.7837 31.4355 31.4355C31.7837 31.0872 31.9855 30.6188 31.9992 30.1264C32.013 29.6341 31.8378 29.1552 31.5095 28.788ZM3.84878 13.4707C3.84878 11.5677 4.41309 9.70738 5.47037 8.12506C6.52764 6.54274 8.03038 5.30947 9.78856 4.5812C11.5467 3.85294 13.4814 3.6624 15.3479 4.03366C17.2143 4.40492 18.9288 5.32133 20.2745 6.66698C21.6201 8.01263 22.5365 9.7271 22.9078 11.5936C23.279 13.46 23.0885 15.3947 22.3602 17.1529C21.632 18.9111 20.3987 20.4138 18.8164 21.4711C17.2341 22.5283 15.3738 23.0927 13.4707 23.0927C10.9198 23.0896 8.47416 22.0749 6.67036 20.2711C4.86656 18.4673 3.85184 16.0217 3.84878 13.4707Z" fill="white"/>
</svg>
