<svg width="16" height="18" viewBox="0 0 16 18" fill="none" xmlns="http://www.w3.org/2000/svg">
<path d="M14.9736 7.95099L3.50057 7.95099L8.51557 2.80599C8.70918 2.6043 8.8173 2.33556 8.8173 2.05599C8.8173 1.77641 8.70918 1.50767 8.51557 1.30599C8.42218 1.20796 8.30985 1.12993 8.1854 1.0766C8.06095 1.02328 7.92696 0.995789 7.79157 0.995789C7.65618 0.995789 7.52219 1.02328 7.39774 1.0766C7.27329 1.12993 7.16096 1.20796 7.06757 1.30599L0.30057 8.25699C0.107802 8.45649 5.53131e-05 8.72307 5.53131e-05 9.00049C5.53131e-05 9.27791 0.107802 9.54448 0.30057 9.74399L7.06757 16.692C7.16096 16.79 7.27329 16.8681 7.39774 16.9214C7.52219 16.9747 7.65618 17.0022 7.79157 17.0022C7.92696 17.0022 8.06095 16.9747 8.1854 16.9214C8.30985 16.8681 8.42218 16.79 8.51557 16.692C8.70834 16.4925 8.81609 16.2259 8.81609 15.9485C8.81609 15.6711 8.70834 15.4045 8.51557 15.205L3.50057 10.06H14.9736C15.2476 10.0515 15.5076 9.93675 15.6985 9.73991C15.8894 9.54308 15.9961 9.27967 15.9961 9.00549C15.9961 8.73131 15.8894 8.4679 15.6985 8.27106C15.5076 8.07423 15.2476 7.95943 14.9736 7.95099Z" fill="white"/>
</svg>
