<svg width="64" height="344" viewBox="0 0 64 344" fill="none" xmlns="http://www.w3.org/2000/svg">
<circle cx="4" cy="4" r="4" fill="#1D293F"/>
<circle cx="32" cy="32" r="4" fill="#1D293F"/>
<circle cx="60" cy="4" r="4" fill="#1D293F"/>
<circle cx="4" cy="32" r="4" fill="#1D293F"/>
<circle cx="32" cy="60" r="4" fill="#1D293F"/>
<circle cx="60" cy="32" r="4" fill="#1D293F"/>
<circle cx="4" cy="60" r="4" fill="#1D293F"/>
<circle cx="32" cy="88" r="4" fill="#1D293F"/>
<circle cx="60" cy="60" r="4" fill="#1D293F"/>
<circle cx="4" cy="88" r="4" fill="#1D293F"/>
<circle cx="32" cy="116" r="4" fill="#1D293F"/>
<circle cx="60" cy="88" r="4" fill="#1D293F"/>
<circle cx="4" cy="116" r="4" fill="#1D293F"/>
<circle cx="32" cy="144" r="4" fill="#1D293F"/>
<circle cx="60" cy="116" r="4" fill="#1D293F"/>
<circle cx="4" cy="144" r="4" fill="#1D293F"/>
<circle cx="32" cy="172" r="4" fill="#1D293F"/>
<circle cx="60" cy="144" r="4" fill="#1D293F"/>
<circle cx="4" cy="172" r="4" fill="#1D293F"/>
<circle cx="32" cy="200" r="4" fill="#1D293F"/>
<circle cx="60" cy="172" r="4" fill="#1D293F"/>
<circle cx="4" cy="200" r="4" fill="#1D293F"/>
<circle cx="32" cy="228" r="4" fill="#1D293F"/>
<circle cx="60" cy="200" r="4" fill="#1D293F"/>
<circle cx="4" cy="228" r="4" fill="#1D293F"/>
<circle cx="32" cy="256" r="4" fill="#1D293F"/>
<circle cx="60" cy="228" r="4" fill="#1D293F"/>
<circle cx="4" cy="256" r="4" fill="#1D293F"/>
<circle cx="32" cy="284" r="4" fill="#1D293F"/>
<circle cx="60" cy="256" r="4" fill="#1D293F"/>
<circle cx="4" cy="284" r="4" fill="#1D293F"/>
<circle cx="32" cy="312" r="4" fill="#1D293F"/>
<circle cx="60" cy="284" r="4" fill="#1D293F"/>
<circle cx="4" cy="312" r="4" fill="#1D293F"/>
<circle cx="32" cy="340" r="4" fill="#1D293F"/>
<circle cx="60" cy="312" r="4" fill="#1D293F"/>
</svg>
