<svg width="320" height="89" viewBox="0 0 320 89" fill="none" xmlns="http://www.w3.org/2000/svg">
<path d="M298.959 85.387C298.947 84.7121 299.136 84.049 299.503 83.482C299.869 82.915 300.396 82.4699 301.016 82.2034C301.636 81.9368 302.321 81.8608 302.985 81.9852C303.648 82.1095 304.26 82.4285 304.741 82.9015C305.223 83.3745 305.552 83.9802 305.689 84.6413C305.825 85.3024 305.761 85.9891 305.506 86.6139C305.25 87.2387 304.814 87.7732 304.254 88.1496C303.694 88.5259 303.034 88.7269 302.359 88.727C301.916 88.7311 301.477 88.6479 301.067 88.4823C300.656 88.3166 300.283 88.0717 299.967 87.7615C299.651 87.4513 299.4 87.082 299.227 86.6745C299.054 86.2671 298.963 85.8296 298.959 85.387ZM271.769 85.387C271.757 84.7121 271.946 84.049 272.313 83.482C272.679 82.915 273.206 82.4699 273.826 82.2034C274.446 81.9368 275.131 81.8608 275.795 81.9852C276.458 82.1095 277.07 82.4285 277.551 82.9015C278.033 83.3745 278.362 83.9802 278.499 84.6413C278.635 85.3024 278.571 85.9891 278.316 86.6139C278.06 87.2387 277.624 87.7732 277.064 88.1496C276.504 88.5259 275.844 88.7269 275.169 88.727C274.726 88.731 274.287 88.6477 273.877 88.482C273.467 88.3163 273.093 88.0714 272.777 87.7612C272.461 87.451 272.21 87.0817 272.037 86.6744C271.864 86.267 271.773 85.8296 271.769 85.387ZM244.581 85.387C244.569 84.7121 244.758 84.049 245.125 83.482C245.491 82.915 246.018 82.4699 246.638 82.2034C247.258 81.9368 247.943 81.8608 248.607 81.9852C249.27 82.1095 249.882 82.4285 250.363 82.9015C250.845 83.3745 251.174 83.9802 251.311 84.6413C251.447 85.3024 251.383 85.9891 251.128 86.6139C250.872 87.2387 250.436 87.7732 249.876 88.1496C249.316 88.5259 248.656 88.7269 247.981 88.727C247.538 88.731 247.099 88.6477 246.689 88.482C246.279 88.3163 245.905 88.0714 245.589 87.7612C245.273 87.451 245.022 87.0817 244.849 86.6744C244.676 86.267 244.585 85.8296 244.581 85.387ZM217.392 85.387C217.38 84.7121 217.569 84.049 217.936 83.482C218.302 82.915 218.829 82.4699 219.449 82.2034C220.069 81.9368 220.754 81.8608 221.418 81.9852C222.081 82.1095 222.693 82.4285 223.174 82.9015C223.656 83.3745 223.985 83.9802 224.122 84.6413C224.258 85.3024 224.194 85.9891 223.939 86.6139C223.683 87.2387 223.247 87.7732 222.687 88.1496C222.127 88.5259 221.467 88.7269 220.792 88.727C220.349 88.731 219.91 88.6477 219.5 88.482C219.09 88.3163 218.716 88.0714 218.4 87.7612C218.085 87.451 217.833 87.0817 217.66 86.6744C217.487 86.267 217.396 85.8296 217.392 85.387ZM190.204 85.387C190.192 84.7121 190.381 84.049 190.748 83.482C191.114 82.915 191.641 82.4699 192.261 82.2034C192.881 81.9368 193.566 81.8608 194.23 81.9852C194.893 82.1095 195.505 82.4285 195.986 82.9015C196.468 83.3745 196.797 83.9802 196.934 84.6413C197.07 85.3024 197.006 85.9891 196.751 86.6139C196.495 87.2387 196.059 87.7732 195.499 88.1496C194.939 88.5259 194.279 88.7269 193.604 88.727C193.161 88.7315 192.722 88.6486 192.311 88.4831C191.9 88.3177 191.526 88.0728 191.21 87.7626C190.893 87.4524 190.642 87.0829 190.468 86.6753C190.295 86.2677 190.204 85.8299 190.2 85.387H190.204ZM163.015 85.387C163.003 84.7121 163.192 84.049 163.559 83.482C163.925 82.915 164.452 82.4699 165.072 82.2034C165.692 81.9368 166.377 81.8608 167.041 81.9852C167.704 82.1095 168.316 82.4285 168.797 82.9015C169.279 83.3745 169.608 83.9802 169.745 84.6413C169.881 85.3024 169.817 85.9891 169.562 86.6139C169.306 87.2387 168.87 87.7732 168.31 88.1496C167.75 88.5259 167.09 88.7269 166.415 88.727C165.972 88.731 165.533 88.6477 165.123 88.482C164.713 88.3163 164.339 88.0714 164.023 87.7612C163.708 87.451 163.456 87.0817 163.283 86.6744C163.11 86.267 163.019 85.8296 163.015 85.387ZM135.943 85.387C135.931 84.7121 136.12 84.049 136.487 83.482C136.853 82.915 137.38 82.4699 138 82.2034C138.62 81.9368 139.305 81.8608 139.969 81.9852C140.632 82.1095 141.244 82.4285 141.725 82.9015C142.207 83.3745 142.536 83.9802 142.673 84.6413C142.809 85.3024 142.745 85.9891 142.49 86.6139C142.234 87.2387 141.798 87.7732 141.238 88.1496C140.678 88.5259 140.018 88.7269 139.343 88.727C138.9 88.731 138.461 88.6477 138.051 88.482C137.641 88.3163 137.267 88.0714 136.951 87.7612C136.635 87.451 136.384 87.0817 136.211 86.6744C136.038 86.267 135.947 85.8296 135.943 85.387ZM108.754 85.387C108.742 84.7121 108.931 84.049 109.298 83.482C109.664 82.915 110.191 82.4699 110.811 82.2034C111.431 81.9368 112.116 81.8608 112.78 81.9852C113.443 82.1095 114.055 82.4285 114.536 82.9015C115.018 83.3745 115.347 83.9802 115.484 84.6413C115.62 85.3024 115.556 85.9891 115.301 86.6139C115.045 87.2387 114.609 87.7732 114.049 88.1496C113.489 88.5259 112.829 88.7269 112.154 88.727C111.711 88.731 111.272 88.6477 110.862 88.482C110.452 88.3163 110.078 88.0714 109.762 87.7612C109.447 87.451 109.195 87.0817 109.022 86.6744C108.849 86.267 108.758 85.8296 108.754 85.387ZM81.566 85.387C81.5541 84.7121 81.7433 84.049 82.1096 83.482C82.4759 82.915 83.0026 82.4699 83.6228 82.2034C84.2429 81.9368 84.9283 81.8608 85.5918 81.9852C86.2552 82.1095 86.8666 82.4285 87.3481 82.9015C87.8297 83.3745 88.1595 83.9802 88.2956 84.6413C88.4317 85.3024 88.368 85.9891 88.1125 86.6139C87.857 87.2387 87.4214 87.7732 86.861 88.1496C86.3007 88.5259 85.641 88.7269 84.966 88.727C84.5234 88.731 84.0844 88.6477 83.674 88.482C83.2637 88.3163 82.8899 88.0714 82.5742 87.7612C82.2585 87.451 82.007 87.0817 81.834 86.6744C81.661 86.267 81.5699 85.8296 81.566 85.387ZM54.377 85.387C54.3651 84.7121 54.5543 84.049 54.9206 83.482C55.2869 82.915 55.8136 82.4699 56.4338 82.2034C57.0539 81.9368 57.7393 81.8608 58.4028 81.9852C59.0662 82.1095 59.6776 82.4285 60.1591 82.9015C60.6407 83.3745 60.9705 83.9802 61.1066 84.6413C61.2427 85.3024 61.179 85.9891 60.9235 86.6139C60.668 87.2387 60.2324 87.7732 59.672 88.1496C59.1117 88.5259 58.452 88.7269 57.777 88.727C57.3344 88.731 56.8954 88.6477 56.4851 88.482C56.0747 88.3163 55.7009 88.0714 55.3852 87.7612C55.0695 87.451 54.818 87.0817 54.645 86.6744C54.472 86.267 54.3809 85.8296 54.377 85.387ZM27.189 85.387C27.1771 84.7121 27.3663 84.049 27.7326 83.482C28.0989 82.915 28.6256 82.4699 29.2458 82.2034C29.8659 81.9368 30.5513 81.8608 31.2148 81.9852C31.8782 82.1095 32.4896 82.4285 32.9711 82.9015C33.4527 83.3745 33.7825 83.9802 33.9186 84.6413C34.0547 85.3024 33.991 85.9891 33.7355 86.6139C33.48 87.2387 33.0444 87.7732 32.484 88.1496C31.9237 88.5259 31.264 88.7269 30.589 88.727C30.1464 88.731 29.7074 88.6477 29.2971 88.482C28.8867 88.3163 28.5129 88.0714 28.1972 87.7612C27.8815 87.451 27.63 87.0817 27.457 86.6744C27.284 86.267 27.1929 85.8296 27.189 85.387ZM0 85.387C0.00379156 84.9444 0.0947521 84.5068 0.267686 84.0993C0.440619 83.6918 0.692138 83.3224 1.00787 83.0121C1.32361 82.7019 1.69738 82.4569 2.10782 82.2911C2.51827 82.1253 2.95736 82.042 3.4 82.046C3.84354 82.0383 4.28418 82.1191 4.69619 82.2835C5.1082 82.4479 5.48334 82.6928 5.79972 83.0037C6.1161 83.3147 6.36739 83.6855 6.53892 84.0946C6.71046 84.5037 6.7988 84.9429 6.7988 85.3865C6.7988 85.8301 6.71046 86.2693 6.53892 86.6784C6.36739 87.0875 6.1161 87.4583 5.79972 87.7693C5.48334 88.0802 5.1082 88.3251 4.69619 88.4895C4.28418 88.6539 3.84354 88.7347 3.4 88.727C2.95744 88.731 2.51844 88.6477 2.10805 88.482C1.69767 88.3163 1.32395 88.0714 1.00822 87.7612C0.692502 87.451 0.440963 87.0817 0.267971 86.6744C0.094979 86.267 0.00392216 85.8296 0 85.387H0ZM312.553 58.506C312.541 57.8311 312.73 57.168 313.097 56.601C313.463 56.034 313.99 55.5889 314.61 55.3224C315.23 55.0558 315.915 54.9798 316.579 55.1042C317.242 55.2285 317.854 55.5475 318.335 56.0205C318.817 56.4936 319.146 57.0992 319.283 57.7603C319.419 58.4214 319.355 59.1081 319.1 59.7329C318.844 60.3577 318.408 60.8922 317.848 61.2686C317.288 61.6449 316.628 61.8459 315.953 61.846C315.51 61.85 315.071 61.7667 314.661 61.601C314.251 61.4353 313.877 61.1903 313.561 60.8802C313.245 60.57 312.994 60.2007 312.821 59.7934C312.648 59.386 312.557 58.9486 312.553 58.506ZM285.364 58.506C285.352 57.8311 285.541 57.168 285.908 56.601C286.274 56.034 286.801 55.5889 287.421 55.3224C288.041 55.0558 288.726 54.9798 289.39 55.1042C290.053 55.2285 290.665 55.5475 291.146 56.0205C291.628 56.4936 291.957 57.0992 292.094 57.7603C292.23 58.4214 292.166 59.1081 291.911 59.7329C291.655 60.3577 291.219 60.8922 290.659 61.2686C290.099 61.6449 289.439 61.8459 288.764 61.846C288.321 61.85 287.882 61.7667 287.472 61.601C287.062 61.4353 286.688 61.1903 286.372 60.8802C286.056 60.57 285.805 60.2007 285.632 59.7934C285.459 59.386 285.368 58.9486 285.364 58.506ZM258.176 58.506C258.164 57.8311 258.353 57.168 258.72 56.601C259.086 56.034 259.613 55.5889 260.233 55.3224C260.853 55.0558 261.538 54.9798 262.202 55.1042C262.865 55.2285 263.477 55.5475 263.958 56.0205C264.44 56.4936 264.769 57.0992 264.906 57.7603C265.042 58.4214 264.978 59.1081 264.723 59.7329C264.467 60.3577 264.031 60.8922 263.471 61.2686C262.911 61.6449 262.251 61.8459 261.576 61.846C261.133 61.85 260.694 61.7667 260.284 61.601C259.874 61.4353 259.5 61.1903 259.184 60.8802C258.868 60.57 258.617 60.2007 258.444 59.7934C258.271 59.386 258.18 58.9486 258.176 58.506ZM230.987 58.506C230.975 57.8311 231.164 57.168 231.531 56.601C231.897 56.034 232.424 55.5889 233.044 55.3224C233.664 55.0558 234.349 54.9798 235.013 55.1042C235.676 55.2285 236.288 55.5475 236.769 56.0205C237.251 56.4936 237.58 57.0992 237.717 57.7603C237.853 58.4214 237.789 59.1081 237.534 59.7329C237.278 60.3577 236.842 60.8922 236.282 61.2686C235.722 61.6449 235.062 61.8459 234.387 61.846C233.944 61.85 233.505 61.7667 233.095 61.601C232.685 61.4353 232.311 61.1903 231.995 60.8802C231.68 60.57 231.428 60.2007 231.255 59.7934C231.082 59.386 230.991 58.9486 230.987 58.506ZM203.799 58.506C203.787 57.8311 203.976 57.168 204.343 56.601C204.709 56.034 205.236 55.5889 205.856 55.3224C206.476 55.0558 207.161 54.9798 207.825 55.1042C208.488 55.2285 209.1 55.5475 209.581 56.0205C210.063 56.4936 210.392 57.0992 210.529 57.7603C210.665 58.4214 210.601 59.1081 210.346 59.7329C210.09 60.3577 209.654 60.8922 209.094 61.2686C208.534 61.6449 207.874 61.8459 207.199 61.846C206.305 61.8537 205.445 61.5062 204.808 60.8798C204.17 60.2535 203.808 59.3996 203.8 58.506H203.799ZM176.61 58.506C176.598 57.8311 176.787 57.168 177.154 56.601C177.52 56.034 178.047 55.5889 178.667 55.3224C179.287 55.0558 179.972 54.9798 180.636 55.1042C181.299 55.2285 181.911 55.5475 182.392 56.0205C182.874 56.4936 183.203 57.0992 183.34 57.7603C183.476 58.4214 183.412 59.1081 183.157 59.7329C182.901 60.3577 182.465 60.8922 181.905 61.2686C181.345 61.6449 180.685 61.8459 180.01 61.846C179.567 61.85 179.128 61.7667 178.718 61.601C178.308 61.4353 177.934 61.1903 177.618 60.8802C177.303 60.57 177.051 60.2007 176.878 59.7934C176.705 59.386 176.614 58.9486 176.61 58.506ZM149.538 58.506C149.526 57.8311 149.715 57.168 150.082 56.601C150.448 56.034 150.975 55.5889 151.595 55.3224C152.215 55.0558 152.9 54.9798 153.564 55.1042C154.227 55.2285 154.839 55.5475 155.32 56.0205C155.802 56.4936 156.131 57.0992 156.268 57.7603C156.404 58.4214 156.34 59.1081 156.085 59.7329C155.829 60.3577 155.393 60.8922 154.833 61.2686C154.273 61.6449 153.613 61.8459 152.938 61.846C152.495 61.85 152.056 61.7667 151.646 61.601C151.236 61.4353 150.862 61.1903 150.546 60.8802C150.23 60.57 149.979 60.2007 149.806 59.7934C149.633 59.386 149.542 58.9486 149.538 58.506ZM122.349 58.506C122.337 57.8311 122.526 57.168 122.893 56.601C123.259 56.034 123.786 55.5889 124.406 55.3224C125.026 55.0558 125.711 54.9798 126.375 55.1042C127.038 55.2285 127.65 55.5475 128.131 56.0205C128.613 56.4936 128.942 57.0992 129.079 57.7603C129.215 58.4214 129.151 59.1081 128.896 59.7329C128.64 60.3577 128.204 60.8922 127.644 61.2686C127.084 61.6449 126.424 61.8459 125.749 61.846C125.306 61.85 124.867 61.7667 124.457 61.601C124.047 61.4353 123.673 61.1903 123.357 60.8802C123.042 60.57 122.79 60.2007 122.617 59.7934C122.444 59.386 122.353 58.9486 122.349 58.506ZM95.161 58.506C95.1491 57.8311 95.3383 57.168 95.7046 56.601C96.0709 56.034 96.5976 55.5889 97.2178 55.3224C97.8379 55.0558 98.5233 54.9798 99.1868 55.1042C99.8502 55.2285 100.462 55.5475 100.943 56.0205C101.425 56.4936 101.754 57.0992 101.891 57.7603C102.027 58.4214 101.963 59.1081 101.708 59.7329C101.452 60.3577 101.016 60.8922 100.456 61.2686C99.8957 61.6449 99.236 61.8459 98.561 61.846C98.1184 61.85 97.6794 61.7667 97.2691 61.601C96.8587 61.4353 96.4849 61.1903 96.1692 60.8802C95.8535 60.57 95.602 60.2007 95.429 59.7934C95.256 59.386 95.1649 58.9486 95.161 58.506ZM67.972 58.506C67.9601 57.8311 68.1493 57.168 68.5156 56.601C68.8819 56.034 69.4086 55.5889 70.0288 55.3224C70.6489 55.0558 71.3343 54.9798 71.9978 55.1042C72.6612 55.2285 73.2726 55.5475 73.7541 56.0205C74.2357 56.4936 74.5655 57.0992 74.7016 57.7603C74.8377 58.4214 74.774 59.1081 74.5185 59.7329C74.263 60.3577 73.8274 60.8922 73.267 61.2686C72.7067 61.6449 72.047 61.8459 71.372 61.846C70.9294 61.85 70.4904 61.7667 70.0801 61.601C69.6697 61.4353 69.2959 61.1903 68.9802 60.8802C68.6645 60.57 68.413 60.2007 68.24 59.7934C68.067 59.386 67.9759 58.9486 67.972 58.506ZM40.784 58.506C40.7721 57.8311 40.9613 57.168 41.3276 56.601C41.6939 56.034 42.2206 55.5889 42.8408 55.3224C43.4609 55.0558 44.1463 54.9798 44.8098 55.1042C45.4732 55.2285 46.0846 55.5475 46.5661 56.0205C47.0477 56.4936 47.3775 57.0992 47.5136 57.7603C47.6497 58.4214 47.586 59.1081 47.3305 59.7329C47.075 60.3577 46.6394 60.8922 46.079 61.2686C45.5187 61.6449 44.859 61.8459 44.184 61.846C43.7414 61.85 43.3024 61.7667 42.8921 61.601C42.4817 61.4353 42.1079 61.1903 41.7922 60.8802C41.4765 60.57 41.225 60.2007 41.052 59.7934C40.879 59.386 40.7879 58.9486 40.784 58.506ZM13.595 58.506C13.5831 57.8311 13.7723 57.168 14.1386 56.601C14.5049 56.034 15.0316 55.5889 15.6518 55.3224C16.2719 55.0558 16.9573 54.9798 17.6208 55.1042C18.2842 55.2285 18.8956 55.5475 19.3771 56.0205C19.8587 56.4936 20.1885 57.0992 20.3246 57.7603C20.4607 58.4214 20.397 59.1081 20.1415 59.7329C19.886 60.3577 19.4504 60.8922 18.89 61.2686C18.3297 61.6449 17.67 61.8459 16.995 61.846C16.5524 61.85 16.1134 61.7667 15.7031 61.601C15.2927 61.4353 14.9189 61.1903 14.6032 60.8802C14.2875 60.57 14.036 60.2007 13.863 59.7934C13.69 59.386 13.5989 58.9486 13.595 58.506ZM298.959 30.281C298.947 29.6061 299.136 28.943 299.503 28.376C299.869 27.809 300.396 27.3639 301.016 27.0974C301.636 26.8308 302.321 26.7548 302.985 26.8792C303.648 27.0035 304.26 27.3225 304.741 27.7955C305.223 28.2686 305.552 28.8742 305.689 29.5353C305.825 30.1964 305.761 30.8831 305.506 31.5079C305.25 32.1327 304.814 32.6672 304.254 33.0436C303.694 33.4199 303.034 33.6209 302.359 33.621C301.916 33.6251 301.477 33.5419 301.067 33.3763C300.656 33.2106 300.283 32.9657 299.967 32.6555C299.651 32.3453 299.4 31.976 299.227 31.5685C299.054 31.1611 298.963 30.7236 298.959 30.281ZM271.769 30.281C271.757 29.6061 271.946 28.943 272.313 28.376C272.679 27.809 273.206 27.3639 273.826 27.0974C274.446 26.8308 275.131 26.7548 275.795 26.8792C276.458 27.0035 277.07 27.3225 277.551 27.7955C278.033 28.2686 278.362 28.8742 278.499 29.5353C278.635 30.1964 278.571 30.8831 278.316 31.5079C278.06 32.1327 277.624 32.6672 277.064 33.0436C276.504 33.4199 275.844 33.6209 275.169 33.621C274.726 33.625 274.287 33.5417 273.877 33.376C273.467 33.2103 273.093 32.9654 272.777 32.6552C272.461 32.3451 272.21 31.9757 272.037 31.5684C271.864 31.161 271.773 30.7236 271.769 30.281ZM244.581 30.281C244.569 29.6061 244.758 28.943 245.125 28.376C245.491 27.809 246.018 27.3639 246.638 27.0974C247.258 26.8308 247.943 26.7548 248.607 26.8792C249.27 27.0035 249.882 27.3225 250.363 27.7955C250.845 28.2686 251.174 28.8742 251.311 29.5353C251.447 30.1964 251.383 30.8831 251.128 31.5079C250.872 32.1327 250.436 32.6672 249.876 33.0436C249.316 33.4199 248.656 33.6209 247.981 33.621C247.538 33.625 247.099 33.5417 246.689 33.376C246.279 33.2103 245.905 32.9654 245.589 32.6552C245.273 32.3451 245.022 31.9757 244.849 31.5684C244.676 31.161 244.585 30.7236 244.581 30.281ZM217.392 30.281C217.38 29.6061 217.569 28.943 217.936 28.376C218.302 27.809 218.829 27.3639 219.449 27.0974C220.069 26.8308 220.754 26.7548 221.418 26.8792C222.081 27.0035 222.693 27.3225 223.174 27.7955C223.656 28.2686 223.985 28.8742 224.122 29.5353C224.258 30.1964 224.194 30.8831 223.939 31.5079C223.683 32.1327 223.247 32.6672 222.687 33.0436C222.127 33.4199 221.467 33.6209 220.792 33.621C220.349 33.625 219.91 33.5417 219.5 33.376C219.09 33.2103 218.716 32.9654 218.4 32.6552C218.085 32.3451 217.833 31.9757 217.66 31.5684C217.487 31.161 217.396 30.7236 217.392 30.281ZM190.204 30.281C190.192 29.6061 190.381 28.943 190.748 28.376C191.114 27.809 191.641 27.3639 192.261 27.0974C192.881 26.8308 193.566 26.7548 194.23 26.8792C194.893 27.0035 195.505 27.3225 195.986 27.7955C196.468 28.2686 196.797 28.8742 196.934 29.5353C197.07 30.1964 197.006 30.8831 196.751 31.5079C196.495 32.1327 196.059 32.6672 195.499 33.0436C194.939 33.4199 194.279 33.6209 193.604 33.621C193.161 33.6255 192.722 33.5426 192.311 33.3771C191.9 33.2117 191.526 32.9668 191.21 32.6566C190.893 32.3464 190.642 31.9769 190.468 31.5693C190.295 31.1617 190.204 30.7239 190.2 30.281H190.204ZM163.015 30.281C163.003 29.6061 163.192 28.943 163.559 28.376C163.925 27.809 164.452 27.3639 165.072 27.0974C165.692 26.8308 166.377 26.7548 167.041 26.8792C167.704 27.0035 168.316 27.3225 168.797 27.7955C169.279 28.2686 169.608 28.8742 169.745 29.5353C169.881 30.1964 169.817 30.8831 169.562 31.5079C169.306 32.1327 168.87 32.6672 168.31 33.0436C167.75 33.4199 167.09 33.6209 166.415 33.621C165.972 33.625 165.533 33.5417 165.123 33.376C164.713 33.2103 164.339 32.9654 164.023 32.6552C163.708 32.3451 163.456 31.9757 163.283 31.5684C163.11 31.161 163.019 30.7236 163.015 30.281ZM135.943 30.281C135.931 29.6061 136.12 28.943 136.487 28.376C136.853 27.809 137.38 27.3639 138 27.0974C138.62 26.8308 139.305 26.7548 139.969 26.8792C140.632 27.0035 141.244 27.3225 141.725 27.7955C142.207 28.2686 142.536 28.8742 142.673 29.5353C142.809 30.1964 142.745 30.8831 142.49 31.5079C142.234 32.1327 141.798 32.6672 141.238 33.0436C140.678 33.4199 140.018 33.6209 139.343 33.621C138.9 33.625 138.461 33.5417 138.051 33.376C137.641 33.2103 137.267 32.9654 136.951 32.6552C136.635 32.3451 136.384 31.9757 136.211 31.5684C136.038 31.161 135.947 30.7236 135.943 30.281ZM108.754 30.281C108.742 29.6061 108.931 28.943 109.298 28.376C109.664 27.809 110.191 27.3639 110.811 27.0974C111.431 26.8308 112.116 26.7548 112.78 26.8792C113.443 27.0035 114.055 27.3225 114.536 27.7955C115.018 28.2686 115.347 28.8742 115.484 29.5353C115.62 30.1964 115.556 30.8831 115.301 31.5079C115.045 32.1327 114.609 32.6672 114.049 33.0436C113.489 33.4199 112.829 33.6209 112.154 33.621C111.711 33.625 111.272 33.5417 110.862 33.376C110.452 33.2103 110.078 32.9654 109.762 32.6552C109.447 32.3451 109.195 31.9757 109.022 31.5684C108.849 31.161 108.758 30.7236 108.754 30.281ZM81.566 30.281C81.5541 29.6061 81.7433 28.943 82.1096 28.376C82.4759 27.809 83.0026 27.3639 83.6228 27.0974C84.2429 26.8308 84.9283 26.7548 85.5918 26.8792C86.2552 27.0035 86.8666 27.3225 87.3481 27.7955C87.8297 28.2686 88.1595 28.8742 88.2956 29.5353C88.4317 30.1964 88.368 30.8831 88.1125 31.5079C87.857 32.1327 87.4214 32.6672 86.861 33.0436C86.3007 33.4199 85.641 33.6209 84.966 33.621C84.5234 33.625 84.0844 33.5417 83.674 33.376C83.2637 33.2103 82.8899 32.9654 82.5742 32.6552C82.2585 32.3451 82.007 31.9757 81.834 31.5684C81.661 31.161 81.5699 30.7236 81.566 30.281ZM54.377 30.281C54.3651 29.6061 54.5543 28.943 54.9206 28.376C55.2869 27.809 55.8136 27.3639 56.4338 27.0974C57.0539 26.8308 57.7393 26.7548 58.4028 26.8792C59.0662 27.0035 59.6776 27.3225 60.1591 27.7955C60.6407 28.2686 60.9705 28.8742 61.1066 29.5353C61.2427 30.1964 61.179 30.8831 60.9235 31.5079C60.668 32.1327 60.2324 32.6672 59.672 33.0436C59.1117 33.4199 58.452 33.6209 57.777 33.621C57.3344 33.625 56.8954 33.5417 56.4851 33.376C56.0747 33.2103 55.7009 32.9654 55.3852 32.6552C55.0695 32.3451 54.818 31.9757 54.645 31.5684C54.472 31.161 54.3809 30.7236 54.377 30.281ZM27.189 30.281C27.1771 29.6061 27.3663 28.943 27.7326 28.376C28.0989 27.809 28.6256 27.3639 29.2458 27.0974C29.8659 26.8308 30.5513 26.7548 31.2148 26.8792C31.8782 27.0035 32.4896 27.3225 32.9711 27.7955C33.4527 28.2686 33.7825 28.8742 33.9186 29.5353C34.0547 30.1964 33.991 30.8831 33.7355 31.5079C33.48 32.1327 33.0444 32.6672 32.484 33.0436C31.9237 33.4199 31.264 33.6209 30.589 33.621C30.1464 33.625 29.7074 33.5417 29.2971 33.376C28.8867 33.2103 28.5129 32.9654 28.1972 32.6552C27.8815 32.3451 27.63 31.9757 27.457 31.5684C27.284 31.161 27.1929 30.7236 27.189 30.281ZM0 30.281C0.00379156 29.8384 0.0947521 29.4008 0.267686 28.9933C0.440619 28.5858 0.692138 28.2164 1.00787 27.9062C1.32361 27.5959 1.69738 27.3509 2.10782 27.1851C2.51827 27.0193 2.95736 26.936 3.4 26.94C3.84354 26.9323 4.28418 27.0131 4.69619 27.1775C5.1082 27.3419 5.48334 27.5868 5.79972 27.8977C6.1161 28.2087 6.36739 28.5795 6.53892 28.9886C6.71046 29.3977 6.7988 29.8369 6.7988 30.2805C6.7988 30.7241 6.71046 31.1633 6.53892 31.5724C6.36739 31.9815 6.1161 32.3523 5.79972 32.6633C5.48334 32.9742 5.1082 33.2191 4.69619 33.3835C4.28418 33.5479 3.84354 33.6287 3.4 33.621C2.95744 33.625 2.51844 33.5417 2.10805 33.376C1.69767 33.2103 1.32395 32.9654 1.00822 32.6552C0.692502 32.3451 0.440963 31.9757 0.267971 31.5684C0.094979 31.161 0.00392216 30.7236 0 30.281H0ZM312.553 3.4C312.553 2.49826 312.911 1.63346 313.549 0.995837C314.186 0.358213 315.051 0 315.953 0C316.855 0 317.72 0.358213 318.357 0.995837C318.995 1.63346 319.353 2.49826 319.353 3.4C319.353 4.30174 318.995 5.16654 318.357 5.80416C317.72 6.44179 316.855 6.8 315.953 6.8C315.051 6.8 314.186 6.44179 313.549 5.80416C312.911 5.16654 312.553 4.30174 312.553 3.4ZM285.364 3.4C285.364 2.49826 285.722 1.63346 286.36 0.995837C286.997 0.358213 287.862 0 288.764 0C289.666 0 290.531 0.358213 291.168 0.995837C291.806 1.63346 292.164 2.49826 292.164 3.4C292.164 4.30174 291.806 5.16654 291.168 5.80416C290.531 6.44179 289.666 6.8 288.764 6.8C287.862 6.8 286.997 6.44179 286.36 5.80416C285.722 5.16654 285.364 4.30174 285.364 3.4ZM258.176 3.4C258.176 2.49826 258.534 1.63346 259.172 0.995837C259.809 0.358213 260.674 0 261.576 0C262.478 0 263.343 0.358213 263.98 0.995837C264.618 1.63346 264.976 2.49826 264.976 3.4C264.976 4.30174 264.618 5.16654 263.98 5.80416C263.343 6.44179 262.478 6.8 261.576 6.8C260.674 6.8 259.809 6.44179 259.172 5.80416C258.534 5.16654 258.176 4.30174 258.176 3.4ZM230.987 3.4C230.987 2.49826 231.345 1.63346 231.983 0.995837C232.62 0.358213 233.485 0 234.387 0C235.289 0 236.154 0.358213 236.791 0.995837C237.429 1.63346 237.787 2.49826 237.787 3.4C237.787 4.30174 237.429 5.16654 236.791 5.80416C236.154 6.44179 235.289 6.8 234.387 6.8C233.485 6.8 232.62 6.44179 231.983 5.80416C231.345 5.16654 230.987 4.30174 230.987 3.4ZM203.799 3.4C203.799 2.49826 204.157 1.63346 204.795 0.995837C205.432 0.358213 206.297 0 207.199 0C208.101 0 208.966 0.358213 209.603 0.995837C210.241 1.63346 210.599 2.49826 210.599 3.4C210.599 4.30174 210.241 5.16654 209.603 5.80416C208.966 6.44179 208.101 6.8 207.199 6.8C206.297 6.8 205.432 6.44179 204.795 5.80416C204.157 5.16654 203.799 4.30174 203.799 3.4ZM176.61 3.4C176.61 2.49826 176.968 1.63346 177.606 0.995837C178.243 0.358213 179.108 0 180.01 0C180.912 0 181.777 0.358213 182.414 0.995837C183.052 1.63346 183.41 2.49826 183.41 3.4C183.41 4.30174 183.052 5.16654 182.414 5.80416C181.777 6.44179 180.912 6.8 180.01 6.8C179.108 6.8 178.243 6.44179 177.606 5.80416C176.968 5.16654 176.61 4.30174 176.61 3.4ZM149.538 3.4C149.538 2.49826 149.896 1.63346 150.534 0.995837C151.171 0.358213 152.036 0 152.938 0C153.84 0 154.705 0.358213 155.342 0.995837C155.98 1.63346 156.338 2.49826 156.338 3.4C156.338 4.30174 155.98 5.16654 155.342 5.80416C154.705 6.44179 153.84 6.8 152.938 6.8C152.036 6.8 151.171 6.44179 150.534 5.80416C149.896 5.16654 149.538 4.30174 149.538 3.4ZM122.349 3.4C122.349 2.49826 122.707 1.63346 123.345 0.995837C123.982 0.358213 124.847 0 125.749 0C126.651 0 127.516 0.358213 128.153 0.995837C128.791 1.63346 129.149 2.49826 129.149 3.4C129.149 4.30174 128.791 5.16654 128.153 5.80416C127.516 6.44179 126.651 6.8 125.749 6.8C124.847 6.8 123.982 6.44179 123.345 5.80416C122.707 5.16654 122.349 4.30174 122.349 3.4ZM95.161 3.4C95.161 2.49826 95.5192 1.63346 96.1568 0.995837C96.7945 0.358213 97.6593 2.01166e-07 98.561 2.01166e-07C99.4627 2.01166e-07 100.328 0.358213 100.965 0.995837C101.603 1.63346 101.961 2.49826 101.961 3.4C101.961 4.30174 101.603 5.16654 100.965 5.80416C100.328 6.44179 99.4627 6.8 98.561 6.8C97.6593 6.8 96.7945 6.44179 96.1568 5.80416C95.5192 5.16654 95.161 4.30174 95.161 3.4ZM67.972 3.4C67.972 2.49826 68.3302 1.63346 68.9678 0.995837C69.6055 0.358213 70.4703 0 71.372 0C72.2737 0 73.1385 0.358213 73.7762 0.995837C74.4138 1.63346 74.772 2.49826 74.772 3.4C74.772 4.30174 74.4138 5.16654 73.7762 5.80416C73.1385 6.44179 72.2737 6.8 71.372 6.8C70.4703 6.8 69.6055 6.44179 68.9678 5.80416C68.3302 5.16654 67.972 4.30174 67.972 3.4ZM40.784 3.4C40.784 2.49826 41.1422 1.63346 41.7798 0.995837C42.4175 0.358213 43.2823 1.45286e-07 44.184 1.45286e-07C45.0857 1.45286e-07 45.9505 0.358213 46.5882 0.995837C47.2258 1.63346 47.584 2.49826 47.584 3.4C47.584 4.30174 47.2258 5.16654 46.5882 5.80416C45.9505 6.44179 45.0857 6.8 44.184 6.8C43.2823 6.8 42.4175 6.44179 41.7798 5.80416C41.1422 5.16654 40.784 4.30174 40.784 3.4ZM13.595 3.4C13.595 2.49826 13.9532 1.63346 14.5908 0.995837C15.2285 0.358213 16.0933 0 16.995 0C17.8967 0 18.7615 0.358213 19.3992 0.995837C20.0368 1.63346 20.395 2.49826 20.395 3.4C20.395 4.30174 20.0368 5.16654 19.3992 5.80416C18.7615 6.44179 17.8967 6.8 16.995 6.8C16.0933 6.8 15.2285 6.44179 14.5908 5.80416C13.9532 5.16654 13.595 4.30174 13.595 3.4Z" fill="#546179"/>
</svg>
