<svg width="33" height="33" viewBox="0 0 33 33" fill="none" xmlns="http://www.w3.org/2000/svg">
<path d="M16.5 0C13.2366 0 10.0465 0.967708 7.3331 2.78075C4.61969 4.59379 2.50484 7.17074 1.256 10.1857C0.0071491 13.2007 -0.319606 16.5183 0.31705 19.719C0.953706 22.9197 2.52518 25.8597 4.83275 28.1673C7.14031 30.4748 10.0803 32.0463 13.281 32.683C16.4817 33.3196 19.7993 32.9929 22.8143 31.744C25.8293 30.4952 28.4062 28.3803 30.2193 25.6669C32.0323 22.9535 33 19.7634 33 16.5C32.9952 12.1254 31.2552 7.93137 28.1619 4.83807C25.0686 1.74476 20.8746 0.00482522 16.5 0V0ZM16.5 30.4438C13.7422 30.4438 11.0463 29.626 8.75326 28.0938C6.46022 26.5617 4.67301 24.3839 3.61764 21.8361C2.56227 19.2882 2.28613 16.4845 2.82416 13.7797C3.36218 11.0749 4.6902 8.59033 6.64027 6.64026C8.59034 4.69019 11.0749 3.36217 13.7797 2.82415C16.4845 2.28613 19.2882 2.56226 21.8361 3.61763C24.384 4.673 26.5617 6.46021 28.0938 8.75325C29.626 11.0463 30.4438 13.7422 30.4438 16.5C30.4395 20.1968 28.969 23.741 26.355 26.355C23.741 28.969 20.1968 30.4395 16.5 30.4438Z" fill="#1D293F"/>
<path d="M22.75 15.25H17.75V10.25C17.75 9.91847 17.6183 9.60053 17.3839 9.36611C17.1495 9.13169 16.8315 9 16.5 9C16.1685 9 15.8505 9.13169 15.6161 9.36611C15.3817 9.60053 15.25 9.91847 15.25 10.25V15.25H10.25C9.91847 15.25 9.60053 15.3817 9.36611 15.6161C9.13169 15.8505 9 16.1685 9 16.5C9 16.8315 9.13169 17.1495 9.36611 17.3839C9.60053 17.6183 9.91847 17.75 10.25 17.75H15.25V22.75C15.25 23.0815 15.3817 23.3995 15.6161 23.6339C15.8505 23.8683 16.1685 24 16.5 24C16.8315 24 17.1495 23.8683 17.3839 23.6339C17.6183 23.3995 17.75 23.0815 17.75 22.75V17.75H22.75C23.0815 17.75 23.3995 17.6183 23.6339 17.3839C23.8683 17.1495 24 16.8315 24 16.5C24 16.1685 23.8683 15.8505 23.6339 15.6161C23.3995 15.3817 23.0815 15.25 22.75 15.25Z" fill="#1D293F"/>
</svg>
