<svg width="139" height="37" viewBox="0 0 139 37" fill="none" xmlns="http://www.w3.org/2000/svg">
<path d="M102.652 21.61H109.472L106.172 13.47H105.952L102.652 21.61ZM108.592 11.6L114.862 27H111.694L110.242 23.26H101.882L100.43 27H97.262L103.532 11.6H108.592ZM119.819 27H116.629V11.6H119.819V27ZM130.822 11.6C131.922 11.6 132.905 11.7247 133.77 11.974C134.65 12.2087 135.391 12.5607 135.992 13.03C136.594 13.4847 137.056 14.0493 137.378 14.724C137.701 15.384 137.862 16.1393 137.862 16.99C137.862 18.1633 137.569 19.1533 136.982 19.96C136.396 20.7667 135.552 21.3827 134.452 21.808L138.082 27H134.452L131.218 22.38H130.822H126.092V27H122.902V11.6H130.822ZM126.092 13.25V20.73H130.822C131.981 20.73 132.876 20.4293 133.506 19.828C134.137 19.212 134.452 18.266 134.452 16.99C134.452 15.714 134.137 14.7753 133.506 14.174C132.876 13.558 131.981 13.25 130.822 13.25H126.092Z" fill="white"/>
<path d="M11.4119 0C12.1259 0.154953 12.8437 0.295156 13.5529 0.469516C14.113 0.607235 14.6623 0.788272 15.2171 0.947883C15.9075 1.14646 16.6008 1.33573 17.2889 1.54192C18.3205 1.85089 19.3477 2.17477 20.3788 2.4853C21.0292 2.68124 21.6847 2.86026 22.3357 3.05419C23.3938 3.36953 24.4487 3.69589 25.5078 4.00797C26.2207 4.21804 26.9421 4.40001 27.6535 4.6152C28.6472 4.91579 29.6334 5.24107 30.6262 5.54492C31.0309 5.66882 31.4472 5.75468 31.8532 5.8747C32.5413 6.0781 33.2248 6.29686 33.9114 6.50538C34.4494 6.66872 34.9891 6.82631 35.5606 6.99601C35.8537 6.80473 36.1936 6.55553 36.558 6.35027C37.5076 5.8157 38.8898 6.11691 39.5838 6.98499C40.334 7.9234 40.5245 8.97562 40.4064 10.1637C40.3165 11.0676 39.915 11.7878 39.4378 12.5048C39.4608 12.5324 39.4838 12.5602 39.5068 12.5878C39.7234 12.411 39.9778 12.2639 40.1479 12.05C40.4 11.7329 40.6178 11.3814 40.8031 11.0203C40.9967 10.6425 41.1842 10.2921 41.7603 10.312C41.5396 10.1185 41.3443 10.0188 41.2699 9.86202C41.1934 9.70086 41.2277 9.4838 41.2265 9.29112C41.2244 8.99255 41.3926 8.89287 41.659 8.97578C42.3697 9.19703 43.0741 9.43815 43.7852 9.65754C44.4358 9.85829 45.0918 10.0418 45.7457 10.2312C46.1506 10.3486 46.5562 10.4644 46.9624 10.5775C47.045 10.6005 47.1318 10.6079 47.2196 10.6231C47.2397 9.78936 46.3356 8.46822 45.5117 8.26778C44.5309 8.02914 43.5824 7.6593 42.6172 7.35483C42.3728 7.27782 42.1206 7.21944 41.868 7.17612C41.1648 7.05548 40.7048 6.56174 40.2109 6.118C40.0317 5.95699 39.8561 5.79179 39.679 5.62845C39.7033 5.58715 39.7276 5.54585 39.7519 5.50455C40.0809 5.56542 40.4199 5.59445 40.7372 5.69304C41.6437 5.97454 42.5291 6.33257 43.447 6.56438C43.9785 6.69853 44.5132 6.88065 45.1112 6.76467C45.753 6.64031 46.4262 6.68968 47.0821 6.62416C48.4793 6.48458 49.8728 6.30804 51.2701 6.16892C52.5941 6.03711 53.9208 5.93137 55.2466 5.81881C56.262 5.73264 57.2795 5.66898 58.2933 5.56775C59.6013 5.43717 60.9058 5.27212 62.2131 5.13472C63.714 4.97697 65.2162 4.83211 66.7182 4.68461C66.9879 4.65806 67.2596 4.65216 67.5293 4.62561C69.1202 4.46864 70.7097 4.29831 72.3015 4.15236C73.7413 4.02039 75.1841 3.92304 76.6242 3.79355C78.3176 3.64139 80.0094 3.4706 81.7019 3.30882C82.6902 3.21426 83.6792 3.12669 84.6667 3.02531C85.0247 2.98851 85.3779 2.89799 85.7363 2.87129C86.5988 2.80685 87.4159 3.02096 88.2373 3.26643C89.3185 3.58938 90.4214 3.84028 91.5124 4.13125C92.1324 4.2966 92.7512 4.46848 93.3619 4.66427C93.5027 4.70945 93.6081 4.86456 93.7704 5.00367C93.639 5.09186 93.5658 5.17338 93.4776 5.19527C92.6935 5.39028 91.9051 5.56775 91.1216 5.76477C90.66 5.88076 90.2076 6.03276 89.7463 6.15029C89.2235 6.28351 88.6934 6.38862 88.1701 6.51998C87.349 6.72601 86.532 6.94773 85.7113 7.155C85.1879 7.28729 84.6594 7.39923 84.1358 7.53121C83.2153 7.76348 82.2992 8.01377 81.377 8.23843C80.491 8.45425 79.5976 8.63932 78.7109 8.8525C77.9105 9.04487 77.1145 9.25525 76.3176 9.46097C75.5091 9.66965 74.702 9.8836 73.8937 10.0927C72.9739 10.3308 72.0559 10.5767 71.1324 10.7995C70.232 11.0167 69.3228 11.1968 68.423 11.4161C67.749 11.5803 67.0798 11.7674 66.4161 11.9693C65.7047 12.1855 65.0015 12.4293 64.2955 12.6637C63.5909 12.8979 62.8907 13.146 62.1825 13.3683C61.4975 13.5835 60.8039 13.7711 60.1166 13.9791C60.0487 13.9996 59.9987 14.0793 59.9405 14.1315C59.9964 14.1864 60.0433 14.2723 60.1098 14.2918C61.0708 14.5749 62.0372 14.8402 62.9967 15.1284C63.6841 15.3347 64.3711 15.5471 65.0426 15.799C65.4474 15.9508 65.7118 15.6634 66.0108 15.5454C66.6993 15.274 67.3573 14.9241 68.0223 14.5951C68.7801 14.2203 69.5339 13.8372 70.286 13.4509C71.2071 12.978 72.1256 12.5003 73.0432 12.0205C73.713 11.6704 74.3867 11.3265 75.045 10.9557C75.5804 10.654 76.0429 10.9406 76.5248 11.0889C77.26 11.3151 77.9933 11.5469 78.7257 11.782C79.1523 11.919 79.5798 12.0551 79.9984 12.2143C80.257 12.3125 80.2859 12.4782 80.1387 12.7352C79.4773 13.8888 78.8395 15.0559 78.1889 16.2159C78.034 16.4922 77.8464 16.725 77.4859 16.7503C76.0435 16.8514 74.602 16.9649 73.1595 17.0631C73.0525 17.0704 72.9398 16.9942 72.8297 16.9568C72.8713 16.8472 72.8827 16.7062 72.9589 16.6327C74.1789 15.4596 75.4063 14.2942 76.6361 13.1312C76.7069 13.0643 76.8125 13.0339 76.952 12.96C76.8926 12.8693 76.8532 12.7296 76.7768 12.7049C76.2294 12.529 75.7049 12.3562 75.1226 12.7125C74.3532 13.1836 73.5248 13.5579 72.7269 13.9835C72.2299 14.2485 71.7464 14.5387 71.2499 14.8044C70.1769 15.3785 69.0981 15.942 68.0242 16.5144C67.1581 16.976 66.3006 17.4542 65.4268 17.9008C65.2612 17.9854 65.0184 18.0196 64.8436 17.9677C63.9229 17.6944 63.0163 17.3735 62.0973 17.0936C61.1629 16.809 60.2192 16.5545 59.2805 16.2839C58.332 16.0103 57.3816 15.7428 56.4381 15.4534C55.9712 15.3102 55.5421 15.4515 55.1132 15.5788C54.7883 15.6754 54.4798 15.828 54.1639 15.9556C54.1709 16.0004 54.1781 16.0451 54.1851 16.0899C54.8474 16.3177 55.5098 16.5455 56.1723 16.7731C56.1634 16.8045 56.1547 16.8358 56.1459 16.8672C55.7301 16.7526 55.3196 16.6115 54.8976 16.529C54.1248 16.378 53.3962 16.0493 52.547 16.4193C51.6363 16.8161 50.6348 17.0015 49.6799 17.3018C48.5978 17.6423 47.5235 18.0078 46.4175 18.454C46.8545 18.6131 47.2847 18.7948 47.7297 18.9263C48.4799 19.1479 49.2421 19.3291 49.9947 19.5433C50.7478 19.7577 51.4953 19.9919 52.2455 20.217C53.0086 20.446 53.7683 20.6878 54.5366 20.8986C55.0188 21.031 55.5115 21.1304 56.0038 21.2202C56.6628 21.3402 57.3248 21.4444 57.9875 21.5416C59.5275 21.7676 61.0642 22.0269 62.6106 22.1951C64.2023 22.3682 65.8033 22.461 67.4017 22.5669C68.8939 22.6658 70.3879 22.7369 71.8814 22.8172C72.0026 22.8237 72.1251 22.8073 72.2568 22.7445C71.8031 22.5415 71.3552 22.3245 70.8947 22.1385C70.1465 21.8362 69.3892 21.5566 68.6376 21.2624C68.0561 21.0348 67.4781 20.7989 66.8979 20.5684C66.4088 20.374 65.9214 20.1748 65.4281 19.9917C65.2137 19.9122 64.9816 19.8809 64.7663 19.8035C64.5897 19.7402 64.4119 19.6595 64.2655 19.5466C64.2236 19.5141 64.2558 19.271 64.3093 19.2468C64.9496 18.9563 65.5792 18.6007 66.254 18.4377C67.0997 18.2335 67.9849 18.1924 68.8531 18.0807C69.134 18.0447 69.4139 17.9992 69.6957 17.9741C71.0597 17.8528 72.4249 17.7458 73.7882 17.6173C75.4436 17.4611 77.0971 17.2844 78.7522 17.124C79.8048 17.022 80.8581 16.9257 81.9121 16.8422C82.3321 16.809 82.756 16.797 83.1771 16.8099C84.2891 16.8437 85.2157 17.4487 86.2192 17.8193C87.0459 18.1245 87.88 18.4114 88.716 18.6909C89.4521 18.937 90.1933 19.1684 90.9361 19.3935C91.3298 19.5127 91.7347 19.5944 92.1293 19.711C92.9113 19.9422 93.6892 20.1875 94.4699 20.4235C94.7757 20.516 95.0844 20.5991 95.3917 20.687C96.118 20.8947 96.8477 21.0914 97.5694 21.3142C98.1373 21.4897 98.6954 21.6973 99.2577 21.8907C99.2493 21.9305 99.2411 21.9704 99.2327 22.0101C98.7747 21.9216 98.3134 21.8474 97.8596 21.7409C97.3633 21.6245 96.8747 21.4763 96.3819 21.3455C95.4778 21.1053 94.5742 20.8638 93.6684 20.6306C93.2465 20.5219 92.8174 20.4414 92.3963 20.3299C91.5798 20.1136 90.7673 19.8819 89.9518 19.6615C89.5935 19.5646 89.2347 19.4666 88.8715 19.3915C88.0879 19.2295 87.3352 18.8252 86.4954 19.0847C86.1886 19.1794 85.876 19.2555 85.5672 19.3436C84.7782 19.5688 83.9916 19.8024 83.2004 20.0192C82.8178 20.124 82.4251 20.1915 82.0401 20.2881C81.2673 20.4819 80.4954 20.6786 79.726 20.8853C79.4203 20.9674 79.1227 21.0793 78.7555 21.1992C78.8733 21.2796 78.959 21.3715 79.0632 21.4034C79.4654 21.5265 79.874 21.628 80.2789 21.7423C80.7089 21.8637 81.1379 21.9886 81.5661 22.1157C82.0306 22.2536 82.4942 22.3947 82.9575 22.5365C83.3982 22.6712 83.8363 22.8139 84.2784 22.9436C84.6959 23.0661 85.1193 23.1686 85.5363 23.2931C86.2959 23.5199 87.0523 23.7579 87.8108 23.9887C88.1395 24.0887 88.4692 24.1862 88.8001 24.2785C89.453 24.4608 90.1096 24.6304 90.7602 24.8209C91.5576 25.0544 92.3483 25.3106 93.1455 25.5449C93.8342 25.7472 94.5298 25.9257 95.2188 26.1268C96.0051 26.3564 96.7864 26.6033 97.5719 26.8356C98.2716 27.0425 98.9761 27.2337 99.6749 27.4436C100.185 27.5967 100.688 27.7713 101.196 27.9319C101.556 28.0455 101.918 28.1502 102.279 28.2617C102.42 28.3053 102.559 28.3564 102.699 28.404C102.69 28.4363 102.681 28.4686 102.672 28.5011C102.004 28.3396 101.335 28.1769 100.666 28.0174C100.234 27.9143 99.7962 27.8289 99.367 27.7123C98.9126 27.5889 98.4673 27.4319 98.0147 27.3011C97.6824 27.2049 97.3449 27.127 97.0095 27.0413C96.2532 26.8481 95.4937 26.6668 94.7414 26.4591C93.9648 26.2445 93.1964 26.0006 92.4222 25.7765C92.0414 25.6663 91.6549 25.5762 91.2728 25.4703C90.4094 25.2308 89.5479 24.9851 88.6844 24.7457C88.3633 24.6566 88.0388 24.5801 87.717 24.4937C86.9992 24.3014 86.2789 24.1175 85.5657 23.9099C84.8306 23.696 84.106 23.4463 83.3705 23.2341C82.6333 23.0214 81.8873 22.8392 81.1472 22.6363C80.7646 22.5315 80.387 22.409 80.0061 22.2977C79.221 22.0684 78.4388 21.8269 77.6472 21.622C77.4213 21.5634 77.1676 21.613 76.8805 21.613C76.9259 21.7285 76.9301 21.7886 76.9619 21.8128C77.3912 22.1398 77.2456 22.5449 77.1075 22.9374C76.8912 23.5527 76.6771 24.1703 76.4191 24.7684C76.332 24.9704 76.1342 25.1441 75.9488 25.2778C75.823 25.3685 75.6325 25.3863 75.4676 25.4033C74.2237 25.5306 72.9797 25.6581 71.7342 25.7686C70.6925 25.861 69.6484 25.9268 68.6061 26.0119C68.0473 26.0575 67.8218 26.4134 68.0218 26.9303C68.0482 26.9986 68.1373 27.0688 68.2108 27.0886C68.9519 27.2903 69.7016 27.4614 70.4371 27.681C71.4277 27.9768 72.4029 28.3242 73.3941 28.6182C74.1431 28.8402 74.9078 29.0094 75.6634 29.2097C75.9608 29.2886 76.2542 29.3831 76.5467 29.4789C77.2879 29.7218 78.025 29.9775 78.7688 30.2115C79.1345 30.3265 79.5166 30.3892 79.8826 30.5034C80.4238 30.672 80.9574 30.8651 81.4943 31.0479C81.4844 31.0861 81.4745 31.1243 81.4645 31.1625C81.0639 31.0777 80.662 30.9985 80.2629 30.9067C79.7383 30.7861 79.2137 30.6647 78.6932 30.5274C77.8901 30.3155 77.0917 30.0862 76.2891 29.8717C75.8932 29.766 75.4903 29.6868 75.0948 29.5794C74.1939 29.3348 73.2988 29.0678 72.3951 28.8337C71.601 28.6279 70.7975 28.4585 70.0002 28.2648C69.7139 28.1951 69.4327 28.1033 69.1506 28.0171C68.4033 27.7889 67.6442 27.592 66.9132 27.3198C66.0767 27.0085 65.2685 26.6215 64.4402 26.2869C64.2808 26.2224 64.0848 26.2369 63.9053 26.2347C62.2496 26.2145 60.5914 26.2493 58.9389 26.1662C57.5142 26.0947 56.0953 25.8984 54.6755 25.7411C53.9345 25.659 53.1864 25.5913 52.4609 25.4303C51.2206 25.155 49.9947 24.8153 48.7647 24.4951C48.0439 24.3074 47.3254 24.1107 46.6087 23.9079C45.9067 23.7095 45.2098 23.4941 44.5083 23.2942C43.732 23.0728 42.9527 22.8621 42.1758 22.6433C41.8547 22.5529 41.535 22.457 41.2165 22.3579C40.507 22.137 39.8008 21.9046 39.0888 21.6917C38.4355 21.4964 37.779 21.3101 37.118 21.1431C36.9372 21.0975 36.735 21.1362 36.5161 21.1362C36.5796 21.4388 36.4147 21.5461 36.1657 21.671C35.2845 22.1134 34.4298 22.6081 33.5565 23.0664C32.832 23.4466 32.1023 23.8185 31.3623 24.1671C30.3973 24.6215 29.499 25.1718 28.6832 25.8618C28.2328 26.2428 27.7555 26.5917 27.2939 26.9596C27.011 27.1852 26.7137 27.0924 26.4136 27.0178C25.6938 26.839 24.9651 26.6895 24.2566 26.4735C23.8699 26.3555 23.6225 26.0465 23.5693 25.6158C23.4932 25.0024 23.4039 24.3906 23.3297 23.777C23.2336 22.9835 23.1802 22.1825 23.0327 21.399C22.9954 21.2008 22.6964 21.0023 22.4736 20.8966C21.054 20.2234 20.5626 18.349 21.0242 17.049C21.1191 16.7816 21.4158 16.736 21.5934 17.0018C22.0732 17.7194 22.8299 17.925 23.5839 18.1331C23.759 18.1813 24.0326 18.3118 24.1185 17.9629C24.2136 17.5766 24.1005 17.3515 23.775 17.2541C22.4231 16.85 21.0751 16.4328 19.7211 16.0356C19.0198 15.8299 18.3054 15.6687 17.6036 15.4644C16.6076 15.1742 15.6189 14.8584 14.6247 14.562C13.9119 14.3494 13.1937 14.1551 12.4802 13.9442C11.693 13.7115 10.91 13.4646 10.1226 13.2326C9.44576 13.0333 8.7553 12.8754 8.08876 12.6467C7.10765 12.3099 6.11955 11.9772 5.17633 11.5499C3.98033 11.0082 2.9042 10.2561 1.96067 9.3377C1.41523 8.80685 0.889038 8.25132 0.405548 7.66458C0.202619 7.4174 0.131353 7.06091 0 6.75396C0 6.39173 0 6.02934 0 5.66711C0.38909 4.47795 1.20779 3.64776 2.24387 3.00807C3.08943 2.48592 3.94757 1.98427 4.79702 1.46817C5.56681 1.00052 6.37605 0.637511 7.26307 0.448556C7.87387 0.3186 8.47661 0.150916 9.08291 0C9.85923 0 10.6355 0 11.4119 0ZM14.9073 11.3235C15.048 11.5685 15.7903 11.7971 16.1488 11.6929C15.7909 11.324 15.3205 11.405 14.894 11.3366C14.845 11.2755 14.8076 11.179 14.7454 11.1588C14.1585 10.9681 13.5671 10.791 12.9774 10.6088C12.3936 10.4286 11.8112 10.2432 11.226 10.0674C10.847 9.95363 10.4612 9.86202 10.0834 9.74387C9.6594 9.61127 9.2405 9.46206 8.82098 9.3158C8.65764 9.25882 8.50129 9.18119 8.33687 9.12809C7.95865 9.00574 7.57763 8.89256 7.1977 8.7758C7.18373 8.82424 7.16991 8.87268 7.15593 8.92097C7.55589 9.06009 7.95865 9.1919 8.35519 9.34034C8.70593 9.47153 9.04409 9.63813 9.39809 9.75908C10.252 10.0507 11.1099 10.3318 11.9708 10.6026C12.3486 10.7214 12.7527 10.7669 13.118 10.913C13.6972 11.1443 14.2788 11.3252 14.9073 11.3235ZM34.5498 9.39017C33.638 9.50491 32.7714 9.62059 31.9032 9.72151C31.16 9.80783 30.4136 9.86776 29.6707 9.95658C28.6849 10.0743 27.701 10.2083 26.7163 10.3359C26.18 10.4054 25.6439 10.4769 25.1075 10.5456C24.8515 10.5784 24.5953 10.6186 24.338 10.6307C24.2525 10.6348 24.1428 10.5798 24.0854 10.5151C24.061 10.4876 24.1202 10.3339 24.1796 10.2923C24.7026 9.92645 25.2322 9.57028 25.7638 9.21721C26.0239 9.04456 26.2923 8.88448 26.5569 8.71866C25.4311 8.32802 24.3534 8.04435 23.2769 7.75587C22.6074 7.57639 21.9367 7.40032 21.272 7.20376C20.5497 6.99027 19.8368 6.74511 19.1145 6.53178C18.452 6.33614 17.7808 6.17017 17.1181 5.97547C17.0316 5.95016 16.9726 5.83169 16.9009 5.75639C16.9914 5.69599 17.0785 5.5915 17.1732 5.58405C17.3772 5.56821 17.5923 5.57334 17.7904 5.62131C18.4257 5.77471 19.0536 5.95808 19.6876 6.11738C20.5078 6.32357 21.334 6.50662 22.1524 6.72011C23.0329 6.94975 23.907 7.20391 24.7844 7.44566C25.4512 7.62949 26.1271 7.78522 26.784 7.99933C27.6478 8.28082 28.4975 8.47365 29.4247 8.29728C30.0972 8.16934 30.7973 8.18611 31.4849 8.13844C31.3781 7.98985 31.2561 7.89514 31.1182 7.85555C30.6985 7.73538 30.27 7.64641 29.8502 7.52701C29.197 7.34116 28.547 7.14382 27.8977 6.94493C27.1992 6.73082 26.5069 6.49622 25.8049 6.29453C25.0396 6.07452 24.2604 5.90234 23.498 5.67301C22.2579 5.30007 21.0295 4.88862 19.7911 4.51025C18.6391 4.15826 17.4816 3.82414 16.3244 3.48939C15.2753 3.18585 14.2158 2.91616 13.1744 2.58809C11.8953 2.18502 10.5882 2.11733 9.26705 2.18487C8.95777 2.2007 8.63233 2.26017 8.33097 2.50424C8.77518 2.67596 9.27124 2.53343 9.57168 3.08865C9.13865 3.23522 8.75608 3.43893 8.35519 3.48551C7.38464 3.59807 6.40539 3.63673 5.42987 3.70691C5.30162 3.71607 5.14698 3.69309 5.05025 3.75567C4.25655 4.26974 3.4675 4.79189 2.69304 5.33438C2.54632 5.43717 2.4704 5.64087 2.30784 5.87579C2.71199 5.94705 2.99938 6.00745 3.28957 6.04689C3.7625 6.11117 4.25903 6.09191 4.70681 6.23181C5.87812 6.59761 7.02613 7.03716 8.18844 7.43277C8.58808 7.56878 9.00357 7.65775 9.40958 7.7759C9.88826 7.91517 10.3631 8.06749 10.8419 8.20551C11.5445 8.40798 12.2506 8.59771 12.9524 8.80281C13.3958 8.93246 13.8313 9.08896 14.2749 9.21814C14.9901 9.4262 15.7099 9.61857 16.4261 9.8232C17.5236 10.1367 18.6195 10.4559 19.7166 10.7708C20.383 10.9621 21.0655 11.1096 21.7125 11.3522C22.1822 11.5285 22.6272 11.6524 23.1311 11.5688C23.7517 11.466 24.3779 11.3959 25.0024 11.3175C26.2679 11.1585 27.5332 10.9956 28.8004 10.8501C29.4283 10.7781 30.0623 10.7585 30.6897 10.6837C31.8278 10.5477 32.9616 10.3758 34.1 10.2441C34.5911 10.1873 34.6191 10.1893 34.5894 9.68549C34.5843 9.5959 34.5661 9.50802 34.5498 9.39017ZM66.2209 5.90684C66.2122 5.85203 66.2037 5.79722 66.195 5.74257C65.9064 5.75872 65.6159 5.75872 65.3296 5.79396C64.1342 5.94084 62.9407 6.10216 61.7456 6.2509C60.4439 6.413 59.1417 6.57183 57.8386 6.72151C57.4412 6.76716 57.0374 6.75815 56.6407 6.80737C55.4916 6.95006 54.3455 7.11727 53.196 7.25825C52.7866 7.30856 52.3693 7.29365 51.9589 7.33883C50.5002 7.49922 49.0427 7.6711 47.5854 7.84437C47.4778 7.8571 47.3757 7.91486 47.271 7.95166C47.3316 8.0501 47.3701 8.18145 47.4573 8.23967C47.6044 8.33764 47.7885 8.46154 47.9464 8.44835C48.9858 8.36171 50.0259 8.26778 51.0588 8.12586C52.5629 7.91921 54.0596 7.6607 55.5622 7.44255C56.4154 7.31865 57.2754 7.2435 58.1294 7.12395C59.2114 6.97257 60.2911 6.80256 61.3705 6.6327C62.3089 6.48504 63.2447 6.32031 64.1839 6.17731C64.4508 6.13663 64.7279 6.16473 64.9956 6.127C65.4061 6.06909 65.8127 5.98168 66.2209 5.90684ZM25.5168 19.6626C25.3165 18.9511 25.4838 18.7668 26.185 18.9129C26.964 19.0753 27.7415 19.2441 28.521 19.4044C29.5517 19.6163 30.588 19.804 31.6141 20.0358C32.8818 20.3223 34.1402 20.6499 35.4066 20.9427C35.6115 20.9901 35.8368 20.9494 36.0528 20.9494C35.7947 20.7909 35.5345 20.6868 35.2665 20.6092C34.8167 20.4788 34.3592 20.3748 33.91 20.2426C33.1846 20.0293 32.4653 19.7956 31.7397 19.5829C31.0143 19.3702 30.2826 19.1794 29.5572 18.9667C28.847 18.7583 28.1415 18.5338 27.4336 18.3174C26.9067 18.1563 26.3793 17.997 25.8521 17.8367C25.6096 17.7629 25.393 17.7315 25.3183 18.0658C25.2156 18.5263 25.0977 18.9834 24.991 19.4432C24.9696 19.5357 24.9693 19.6332 24.9572 19.7484C25.169 19.7157 25.3421 19.6893 25.5168 19.6626ZM35.7685 9.75862C36.1966 9.3495 36.5605 8.89644 37.0218 8.59057C37.4828 8.28485 38.0414 8.12649 38.5594 7.90275C38.0016 7.09957 37.1235 7.15407 36.5577 7.5635C35.8644 8.06516 35.5195 8.97112 35.7685 9.75862ZM17.9404 12.3292C17.9522 12.2852 17.9641 12.2413 17.9759 12.1972C17.6395 12.0933 17.303 11.9893 16.9667 11.8854C16.952 11.9393 16.9371 11.9932 16.9223 12.047C17.2616 12.1411 17.601 12.2351 17.9404 12.3292Z" fill="white"/>
<path d="M38.1091 23.6096C38.5845 23.7163 39.0624 23.8127 39.5344 23.9324C40.0055 24.0518 40.4722 24.1886 40.9378 24.3279C41.7101 24.5591 42.4768 24.8092 43.2516 25.0315C43.9895 25.2431 44.7367 25.4223 45.4759 25.6298C45.8705 25.7405 46.2553 25.8859 46.6475 26.006C46.9773 26.1069 47.3114 26.1938 47.6438 26.2862C48.3605 26.4854 49.08 26.6754 49.7934 26.8857C50.482 27.0884 51.1629 27.3178 51.8504 27.524C52.278 27.6522 52.7149 27.75 53.1425 27.8784C53.9154 28.1104 54.6811 28.3669 55.4562 28.5909C56.2039 28.8071 56.9602 28.9932 57.7116 29.1968C57.9702 29.2668 58.2258 29.348 58.4821 29.4264C59.2046 29.6477 59.9262 29.8712 60.6488 30.0919C61.0267 30.2072 61.4056 30.3193 61.7844 30.4313C62.6176 30.6775 63.4504 30.9245 64.2845 31.1675C64.5903 31.2567 64.8993 31.3351 65.2066 31.4194C65.9208 31.6153 66.6372 31.8033 67.3481 32.0105C68.0859 32.2253 68.8182 32.4598 69.5532 32.684C69.8713 32.781 70.1896 32.8784 70.5099 32.9681C71.2359 33.1714 71.9661 33.3598 72.689 33.5733C73.4129 33.787 74.1293 34.0256 74.85 34.2495C75.1675 34.3481 75.487 34.4403 75.8074 34.5296C76.5601 34.7395 77.3173 34.9341 78.0661 35.1567C79.2523 35.5096 80.4334 35.8798 81.6157 36.2459C81.6595 36.2594 81.6928 36.3069 81.7111 36.4175C81.3776 36.3527 81.0411 36.3005 80.7113 36.2206C79.9447 36.0344 79.1794 35.8419 78.4172 35.6385C77.7138 35.4509 77.0151 35.2455 76.3141 35.0488C75.8223 34.9108 75.3296 34.7755 74.838 34.6369C74.0859 34.4245 73.3342 34.2107 72.5825 33.9964C72.2257 33.8947 71.8713 33.7845 71.5129 33.6885C70.7835 33.4934 70.0489 33.3168 69.3226 33.1113C68.5465 32.8916 67.7785 32.6435 67.0045 32.4155C66.6859 32.3218 66.3617 32.2466 66.0394 32.1663C65.5684 32.0491 65.0954 31.9397 64.6257 31.8173C64.354 31.7465 64.0871 31.6571 63.8182 31.5757C63.0832 31.3534 62.3493 31.1278 61.613 30.9101C61.257 30.8048 60.8954 30.7191 60.5384 30.6168C59.6519 30.3626 58.7695 30.093 57.8799 29.8504C57.1389 29.6486 56.3856 29.4919 55.6456 29.2868C54.905 29.0816 54.1759 28.8355 53.4387 28.6175C52.7484 28.4133 52.0527 28.2281 51.3622 28.0245C50.5767 27.793 49.7947 27.5497 49.0107 27.313C48.6954 27.2178 48.3782 27.1285 48.0632 27.0324C47.219 26.7748 46.3759 26.5132 45.5315 26.2567C44.8607 26.0532 44.1824 25.8724 43.518 25.6501C42.6094 25.3461 41.7115 25.0103 40.8077 24.6918C39.9403 24.3862 39.0711 24.0855 38.2027 23.7824C38.1602 23.7675 38.1187 23.7494 38.0766 23.7329C38.0874 23.6919 38.0982 23.6508 38.1091 23.6096Z" fill="white"/>
<path d="M39.0228 22.6555C39.4186 22.7409 39.8164 22.8178 40.2093 22.914C40.7163 23.0382 41.2221 23.168 41.7233 23.3134C42.3987 23.5092 43.069 23.723 43.7419 23.9273C44.155 24.0527 44.5691 24.1749 44.9829 24.2987C45.7549 24.5297 46.5258 24.7645 47.2993 24.9905C47.6912 25.1051 48.0907 25.1941 48.4815 25.3118C49.2792 25.5521 50.0695 25.8173 50.8702 26.0474C51.6221 26.2635 52.3868 26.4346 53.1392 26.6494C53.8509 26.8524 54.5519 27.0933 55.2615 27.3043C55.6916 27.4322 56.1299 27.5319 56.5626 27.6507C56.9335 27.7525 57.3035 27.8584 57.6713 27.9714C58.1239 28.1105 58.5717 28.2652 59.0251 28.4015C59.8098 28.6377 60.5956 28.8706 61.3837 29.0946C62.1234 29.3048 62.8689 29.4947 63.608 29.7074C64.0272 29.8281 64.4363 29.9835 64.8535 30.1111C65.2303 30.2265 65.6135 30.3204 65.9913 30.4328C66.8224 30.6801 67.6509 30.9365 68.4825 31.1824C68.8014 31.2767 69.1284 31.3434 69.447 31.4385C70.3297 31.7016 71.2063 31.9862 72.0924 32.2373C72.8552 32.4534 73.6343 32.6127 74.394 32.8385C75.0785 33.0419 75.744 33.3084 76.4225 33.5333C76.7731 33.6494 77.135 33.7317 77.4898 33.8359C77.941 33.9685 78.3908 34.106 78.8395 34.247C78.8786 34.2593 78.9045 34.3139 78.9053 34.4411C78.1981 34.2542 77.4929 34.059 76.7832 33.8823C76.0008 33.6874 75.2102 33.525 74.4308 33.3199C73.6655 33.1186 72.9115 32.875 72.149 32.6627C71.7185 32.5428 71.2778 32.4593 70.8473 32.3401C70.3946 32.2146 69.9502 32.0597 69.4987 31.9294C69.0928 31.8123 68.6814 31.7145 68.2741 31.6024C67.4376 31.3722 66.6024 31.1365 65.7657 30.9062C65.4201 30.811 65.0718 30.725 64.7253 30.6334C63.3616 30.2735 61.9948 29.9251 60.6359 29.5478C59.9095 29.3461 59.1988 29.0887 58.4776 28.8671C58.1483 28.7659 57.81 28.6946 57.4777 28.6029C56.798 28.4153 56.1179 28.2287 55.4411 28.0314C54.6543 27.8019 53.8711 27.5595 53.0853 27.3263C52.7548 27.2282 52.4222 27.1367 52.0895 27.0461C51.0638 26.7664 50.0316 26.5082 49.0132 26.2042C48.0562 25.9185 47.1151 25.5799 46.1638 25.2747C45.5057 25.0635 44.8391 24.8781 44.1814 24.6652C43.5987 24.4766 43.0227 24.2667 42.4444 24.0644C41.7829 23.8329 41.1167 23.6135 40.463 23.3617C39.9681 23.171 39.4895 22.9376 39.0036 22.7232C39.0098 22.7005 39.0163 22.678 39.0228 22.6555Z" fill="white"/>
<path d="M57.944 36.2163C56.9205 35.9638 55.8973 35.7103 54.8735 35.4594C54.513 35.371 54.1506 35.2905 53.7896 35.2037C52.6435 34.9279 51.493 34.6689 50.3532 34.3693C49.3006 34.0924 48.2611 33.7665 47.2133 33.4719C46.4725 33.2635 45.7263 33.0738 44.9842 32.8707C44.6628 32.7826 44.3443 32.6836 44.0256 32.5862C42.7302 32.1905 41.4387 31.782 40.139 31.4011C39.3771 31.1778 38.5975 31.015 37.8351 30.7937C36.8653 30.5124 35.904 30.2019 34.9405 29.8994C34.2704 29.689 33.5971 29.487 32.9354 29.2527C32.1515 28.975 31.3761 28.6725 30.6018 28.3688C30.2327 28.2241 29.8744 28.0518 29.5111 27.892C29.5258 27.8476 29.5406 27.8032 29.5553 27.7588C29.9199 27.8479 30.2858 27.9314 30.6487 28.0276C31.1185 28.1519 31.5876 28.2797 32.0537 28.4176C32.7909 28.6356 33.5239 28.8677 34.2614 29.0846C34.6789 29.2074 35.1044 29.3023 35.5215 29.4262C36.2812 29.6521 37.0365 29.8921 37.7948 30.1227C38.136 30.2264 38.4777 30.3289 38.8225 30.4186C39.2694 30.5349 39.7213 30.6319 40.1679 30.7495C40.4022 30.8111 40.6289 30.9018 40.8604 30.9744C41.5912 31.2038 42.3222 31.4322 43.0541 31.6579C43.3834 31.7596 43.7135 31.8595 44.0459 31.9509C44.7496 32.1447 45.4574 32.3238 46.1589 32.5251C46.8484 32.7229 47.5316 32.9423 48.2186 33.1486C48.6367 33.2742 49.0575 33.3914 49.4761 33.5156C50.2968 33.7593 51.1166 34.0064 51.9376 34.2493C52.257 34.3437 52.5782 34.432 52.8993 34.5205C53.6263 34.721 54.3608 34.897 55.0786 35.1257C55.8069 35.3578 56.5162 35.649 57.2396 35.8977C57.4774 35.9795 57.733 36.0092 57.9805 36.0627C57.9685 36.114 57.9563 36.1652 57.944 36.2163Z" fill="white"/>
<path d="M95.8441 5.74487C98.5347 6.38301 101.17 7.22904 103.828 7.98765C106.481 8.74472 109.111 9.58128 111.751 10.3829C111.742 10.424 111.733 10.4652 111.724 10.5063C111.531 10.4744 111.337 10.4495 111.147 10.4087C110.749 10.3236 110.353 10.2287 109.955 10.1404C109.456 10.0294 108.954 9.93155 108.457 9.80827C107.985 9.69089 107.521 9.54075 107.051 9.41825C106.591 9.29854 106.125 9.20073 105.665 9.08428C104.759 8.85557 103.853 8.62594 102.95 8.38652C102.208 8.18965 101.469 7.98113 100.73 7.77137C100.458 7.69421 100.189 7.60586 99.9232 7.50991C98.9635 7.16351 98.0013 6.8238 97.0496 6.45676C96.6252 6.29311 96.2236 6.07108 95.8115 5.8756C95.8224 5.83198 95.8332 5.78835 95.8441 5.74487Z" fill="white"/>
</svg>
