<svg width="24" height="24" viewBox="0 0 24 24" fill="none" xmlns="http://www.w3.org/2000/svg">
<g clip-path="url(#clip0_0_49)">
<path d="M19.5 3.75H4.5C4.08579 3.75 3.75 4.08579 3.75 4.5V19.5C3.75 19.9142 4.08579 20.25 4.5 20.25H19.5C19.9142 20.25 20.25 19.9142 20.25 19.5V4.5C20.25 4.08579 19.9142 3.75 19.5 3.75Z" stroke="#151515" stroke-width="1.5" stroke-linecap="round" stroke-linejoin="round"/>
<path d="M16.5 2.25V5.25" stroke="#151515" stroke-width="1.5" stroke-linecap="round" stroke-linejoin="round"/>
<path d="M7.5 2.25V5.25" stroke="#151515" stroke-width="1.5" stroke-linecap="round" stroke-linejoin="round"/>
<path d="M3.75 8.25H20.25" stroke="#151515" stroke-width="1.5" stroke-linecap="round" stroke-linejoin="round"/>
<path d="M8.625 11.9996H11.25L9.75 13.8746C9.99664 13.8746 10.2395 13.9355 10.457 14.0517C10.6745 14.1679 10.86 14.336 10.9971 14.5411C11.1341 14.7461 11.2185 14.9818 11.2427 15.2273C11.267 15.4727 11.2303 15.7203 11.136 15.9482C11.0417 16.1761 10.8926 16.3772 10.702 16.5338C10.5114 16.6903 10.2852 16.7975 10.0433 16.8457C9.80143 16.8939 9.55139 16.8817 9.31534 16.8103C9.07928 16.7388 8.86449 16.6102 8.68999 16.4359" stroke="#151515" stroke-width="1.5" stroke-linecap="round" stroke-linejoin="round"/>
<path d="M13.5 13.1248L15 11.9998V16.8748" stroke="#151515" stroke-width="1.5" stroke-linecap="round" stroke-linejoin="round"/>
</g>
<defs>
<clipPath id="clip0_0_49">
<rect width="24" height="24" fill="white"/>
</clipPath>
</defs>
</svg>
